<?xml version="1.0" encoding="UTF-8" standalone="no"?>
<!-- Created with Inkscape (http://www.inkscape.org/) -->

<svg
   version="1.1"
   id="svg2"
   xml:space="preserve"
   width="339.228"
   height="133.05067"
   viewBox="0 0 339.228 133.05067"
   xmlns="http://www.w3.org/2000/svg"
   xmlns:svg="http://www.w3.org/2000/svg"><defs
     id="defs6" /><g
     id="g8"
     transform="matrix(1.3333333,0,0,-1.3333333,0,133.05067)"><g
       id="g10"
       transform="translate(0,99.39)"><path
         d="M 0,0 H 254.421"
         style="fill:none;stroke:#000000;stroke-width:0.797;stroke-linecap:butt;stroke-linejoin:miter;stroke-miterlimit:10;stroke-dasharray:none;stroke-opacity:1"
         id="path12" /></g><text
       transform="matrix(1,0,0,-1,5.978,87.834)"
       style="font-variant:normal;font-weight:normal;font-size:9.9626px;font-family:CMR10;-inkscape-font-specification:CMR10;writing-mode:lr-tb;fill:#000000;fill-opacity:1;fill-rule:nonzero;stroke:none"
       id="text16"><tspan
         x="0 9.1327152 14.392968 19.928188 24.355568 59.073238 66.68367 71.66497 75.539421 97.726135 105.0596 109.48698 112.25459 115.0222 120.0035 125.53872 128.30634 131.07394 133.84155 137.44702 180.3938 189.5265 193.95389 198.9352 202.86444 208.39966 212.30202"
         y="0"
         id="tspan14">ModelDataReliabilityMeasure</tspan></text><g
       id="g18"
       transform="translate(0,82.283)"><path
         d="M 0,0 H 254.421"
         style="fill:none;stroke:#000000;stroke-width:0.498;stroke-linecap:butt;stroke-linejoin:miter;stroke-miterlimit:10;stroke-dasharray:none;stroke-opacity:1"
         id="path20" /></g><text
       transform="matrix(1,0,0,-1,65.048,70.877)"
       style="font-variant:normal;font-weight:normal;font-size:9.9626px;font-family:CMR10;-inkscape-font-specification:CMR10;writing-mode:lr-tb;fill:#000000;fill-opacity:1;fill-rule:nonzero;stroke:none"
       id="text28"><tspan
         x="0 6.7805457 11.761846 16.743145 45.64465 50.62595 55.607246 58.374859 63.356159 68.337456 95.588158 101.12338 106.38164 111.91686 116.89816 122.15443 127.41269 152.40187 157.38318 162.36447 165.13208 170.11339 175.09468"
         y="0"
         id="tspan22">P10199.82%Synonym52.35%</tspan><tspan
         x="-59.07 -51.252346 -44.471802 -37.276814 -33.95628 -25.657433 -18.185482 -0.00373712 6.7768083 11.758108 16.739408 21.720709 45.650875 50.632175 55.613472 58.381084 63.362385 68.343681 95.584419 101.11964 106.3779 114.67973 122.98157 127.40895 131.2834 135.18576 152.39914 157.38043 162.36174 165.12935 170.11064 175.09195"
         y="11.955"
         id="tspan24">GPT-2XLP137696.37%Symmetry23.71%</tspan><tspan
         x="0 6.7805457 11.761846 45.64465 50.62595 55.607246 58.374859 63.356159 68.337456 95.588158 101.12338 106.38164 114.68347 122.98531 127.41269 131.28714 135.1895 152.40288 157.38417 162.36548 165.13309 170.11438 175.09569"
         y="23.91"
         id="tspan26">P3699.79%Symmetry25.17%</tspan></text><g
       id="g30"
       transform="translate(0,41.416)"><path
         d="M 0,0 H 254.421"
         style="fill:none;stroke:#000000;stroke-width:0.498;stroke-linecap:butt;stroke-linejoin:miter;stroke-miterlimit:10;stroke-dasharray:none;stroke-opacity:1"
         id="path32" /></g><text
       transform="matrix(1,0,0,-1,65.048,30.01)"
       style="font-variant:normal;font-weight:normal;font-size:9.9626px;font-family:CMR10;-inkscape-font-specification:CMR10;writing-mode:lr-tb;fill:#000000;fill-opacity:1;fill-rule:nonzero;stroke:none"
       id="text40"><tspan
         x="0 6.7805457 11.761846 16.743145 49.5201 54.5014 59.4827 64.463997 95.590149 101.12537 106.38363 111.90889 116.89019 122.15642 127.41468 152.40387 157.38516 162.36647 165.13408 170.11539 175.09668"
         y="0"
         id="tspan34">P101100%Synonym58.36%</tspan><tspan
         x="-59.07 -52.843376 -46.616749 -41.635448 -32.502735 -25.030785 -21.710251 -0.0017446 6.778801 11.760101 16.741402 21.7227 49.518356 54.499657 59.480953 64.462257 95.588409 101.12363 106.38189 114.68372 122.98556 127.41293 131.28738 135.18974 152.40312 157.38441 162.36572 165.13333 170.11464 175.09593"
         y="11.955"
         id="tspan36">LLaMA-2P1376100%Symmetry33.40%</tspan><tspan
         x="0 6.7805457 11.761846 49.5201 54.5014 59.4827 64.463997 95.590149 101.12537 106.38363 114.68546 122.9873 127.41468 131.28914 135.19148 152.40486 157.38617 162.36746 165.13507 170.11638 175.09767"
         y="23.910999"
         id="tspan38">P36100%Symmetry33.64%</tspan></text><g
       id="g42"
       transform="translate(0,0.399)"><path
         d="M 0,0 H 254.421"
         style="fill:none;stroke:#000000;stroke-width:0.797;stroke-linecap:butt;stroke-linejoin:miter;stroke-miterlimit:10;stroke-dasharray:none;stroke-opacity:1"
         id="path44" /></g></g></svg>
