<svg xmlns="http://www.w3.org/2000/svg" xmlns:xlink="http://www.w3.org/1999/xlink" xmlns:inkscape="http://www.inkscape.org/namespaces/inkscape" version="1.1" width="252" height="252" viewBox="0 0 252 252">
<defs>
<clipPath id="clip_0">
<path transform="matrix(1,0,0,-1,0,252)" d="M50.06258 41.96H237.20999V210.14402H50.06258Z"/>
</clipPath>
<clipPath id="clip_1">
<path transform="matrix(.01,0,0,-.01,17.062582,213.93689)" d="M-1021-463H1794V1233H-1021Z"/>
</clipPath>
<clipPath id="clip_2">
<path transform="matrix(1,0,0,-1,0,252)" d="M50.06258 41.96H237.20999V210.14402H50.06258Z"/>
</clipPath>
<clipPath id="clip_3">
<path transform="matrix(.01,0,0,-.01,17.062582,197.0716)" d="M-1021-463H1794V1233H-1021Z"/>
</clipPath>
<clipPath id="clip_4">
<path transform="matrix(1,0,0,-1,0,252)" d="M50.06258 41.96H237.20999V210.14402H50.06258Z"/>
</clipPath>
<clipPath id="clip_5">
<path transform="matrix(.01,0,0,-.01,11.062581,181.03131)" d="M-1021-463H1794V1233H-1021Z"/>
</clipPath>
<clipPath id="clip_6">
<path transform="matrix(.007,0,0,-.007,32.2618,177.20319)" d="M-1021-463H1794V1233H-1021Z"/>
</clipPath>
<clipPath id="clip_7">
<path transform="matrix(1,0,0,-1,0,252)" d="M50.06258 41.96H237.20999V210.14402H50.06258Z"/>
</clipPath>
<clipPath id="clip_8">
<path transform="matrix(.01,0,0,-.01,11.062581,164.16603)" d="M-1021-463H1794V1233H-1021Z"/>
</clipPath>
<clipPath id="clip_9">
<path transform="matrix(.007,0,0,-.007,32.2618,160.3379)" d="M-1021-463H1794V1233H-1021Z"/>
</clipPath>
<clipPath id="clip_10">
<path transform="matrix(1,0,0,-1,0,252)" d="M50.06258 41.96H237.20999V210.14402H50.06258Z"/>
</clipPath>
<clipPath id="clip_11">
<path transform="matrix(1,0,0,-1,0,252)" d="M50.06258 41.96H237.20999V210.14402H50.06258Z"/>
</clipPath>
<clipPath id="clip_12">
<path transform="matrix(.007,0,0,-.007,31.882895,123.77615)" d="M-1021-463H1794V1233H-1021Z"/>
</clipPath>
<clipPath id="clip_13">
<path transform="matrix(1,0,0,-1,0,252)" d="M50.06258 41.96H237.20999V210.14402H50.06258Z"/>
</clipPath>
<clipPath id="clip_14">
<path transform="matrix(.007,0,0,-.007,31.882895,107.73588)" d="M-1021-463H1794V1233H-1021Z"/>
</clipPath>
<clipPath id="clip_15">
<path transform="matrix(1,0,0,-1,0,252)" d="M50.06258 41.96H237.20999V210.14402H50.06258Z"/>
</clipPath>
<clipPath id="clip_16">
<path transform="matrix(1,0,0,-1,0,252)" d="M50.06258 41.96H237.20999V210.14402H50.06258Z"/>
</clipPath>
<clipPath id="clip_17">
<path transform="matrix(1,0,0,-1,0,252)" d="M50.06258 41.96H237.20999V210.14402H50.06258Z"/>
</clipPath>
<clipPath id="clip_18">
<path transform="matrix(1,0,0,-1,0,252)" d="M50.06258 41.96H237.20999V210.14402H50.06258Z"/>
</clipPath>
<clipPath id="clip_19">
<path transform="matrix(1,0,0,-1,0,252)" d="M50.06258 41.96H237.20999V210.14402H50.06258Z"/>
</clipPath>
<clipPath id="clip_20">
<path transform="matrix(1,0,0,-1,0,252)" d="M50.06258 41.96H237.20999V210.14402H50.06258Z"/>
</clipPath>
<clipPath id="clip_21">
<path transform="matrix(1,0,0,-1,0,252)" d="M50.06258 41.96H237.20999V210.14402H50.06258Z"/>
</clipPath>
<clipPath id="clip_22">
<path transform="matrix(1,0,0,-1,0,252)" d="M50.06258 41.96H237.20999V210.14402H50.06258Z"/>
</clipPath>
<clipPath id="clip_23">
<path transform="matrix(1,0,0,-1,0,252)" d="M50.06258 41.96H237.20999V210.14402H50.06258Z"/>
</clipPath>
<clipPath id="clip_24">
<path transform="matrix(1,0,0,-1,0,252)" d="M50.06258 41.96H237.20999V210.14402H50.06258Z"/>
</clipPath>
<clipPath id="clip_25">
<path transform="matrix(1,0,0,-1,0,252)" d="M50.06258 41.96H237.20999V210.14402H50.06258Z"/>
</clipPath>
<clipPath id="clip_26">
<path transform="matrix(1,0,0,-1,0,252)" d="M50.06258 41.96H237.20999V210.14402H50.06258Z"/>
</clipPath>
<clipPath id="clip_27">
<path transform="matrix(1,0,0,-1,0,252)" d="M50.06258 41.96H237.20999V210.14402H50.06258Z"/>
</clipPath>
<clipPath id="clip_28">
<path transform="matrix(1,0,0,-1,0,252)" d="M50.06258 41.96H237.20999V210.14402H50.06258Z"/>
</clipPath>
<clipPath id="clip_29">
<path transform="matrix(1,0,0,-1,0,252)" d="M50.06258 41.96H237.20999V210.14402H50.06258Z"/>
</clipPath>
<clipPath id="clip_30">
<path transform="matrix(1,0,0,-1,0,252)" d="M50.06258 41.96H237.20999V210.14402H50.06258Z"/>
</clipPath>
<clipPath id="clip_31">
<path transform="matrix(1,0,0,-1,0,252)" d="M50.06258 41.96H237.20999V210.14402H50.06258Z"/>
</clipPath>
<clipPath id="clip_32">
<path transform="matrix(1,0,0,-1,0,252)" d="M50.06258 41.96H237.20999V210.14402H50.06258Z"/>
</clipPath>
<clipPath id="clip_33">
<path transform="matrix(1,0,0,-1,0,252)" d="M50.06258 41.96H237.20999V210.14402H50.06258Z"/>
</clipPath>
</defs>
<path transform="matrix(1,0,0,-1,0,252)" d="M0 0H252V252H0Z" fill="#ffffff"/>
<path transform="matrix(1,0,0,-1,0,252)" d="M50.06258 41.96H237.21V210.144H50.06258Z" fill="#ffffff"/>
<path transform="matrix(1,0,0,-1,0,252)" d="M81.253818 41.96V38.46"/>
<path transform="matrix(1,0,0,-1,0,252)" stroke-width=".8" stroke-linecap="butt" stroke-linejoin="round" fill="none" stroke="#000000" d="M81.253818 41.96V38.46"/>
<path transform="matrix(.010000001,0,0,-.010000001,59.996007,224.63376)" d="M394 662C322 662 265 635 223 582 181 528 160 456 160 364 160 272 181 199 223 146 265 92 322 66 394 66 465 66 522 92 564 146 606 199 627 272 627 364 627 456 606 528 564 582 522 635 465 662 394 662ZM394 742C496 742 577 707 639 639 700 571 731 479 731 364 731 248 700 157 639 89 577 21 496-13 394-13 291-13 209 21 148 89 86 157 56 248 56 364 56 479 86 571 148 639 209 707 291 742 394 742Z"/>
<text fill-opacity="0" xml:space="preserve" transform="matrix(1 0 -0 1 59.996007 224.63376)" font-size="10" font-family="DejaVuSans"><tspan y="0" x="0">O</tspan></text>
<path transform="matrix(.010000001,0,0,-.010000001,67.866008,224.63376)" d="M549 330V0H459V327C459 379 448 417 428 443 408 469 378 482 338 482 289 482 251 466 223 435 195 404 181 362 181 309V0H91V547H181V462C202 494 227 519 257 535 286 551 320 560 358 560 420 560 468 540 500 501 532 462 549 405 549 330Z"/>
<text fill-opacity="0" xml:space="preserve" transform="matrix(1 0 -0 1 59.996007 224.63376)" font-size="10" font-family="DejaVuSans"><tspan y="0" x="7.870001">n</tspan></text>
<path transform="matrix(.010000001,0,0,-.010000001,74.20601,224.63376)" d=""/>
<text fill-opacity="0" xml:space="preserve" transform="matrix(1 0 -0 1 59.996007 224.63376)" font-size="10" font-family="DejaVuSans"><tspan y="0" x="14.210001"> </tspan></text>
<path transform="matrix(.010000001,0,0,-.010000001,77.38601,224.63376)" d="M-2 729H614V646H355V0H256V646H-2V729Z"/>
<text fill-opacity="0" xml:space="preserve" transform="matrix(1 0 -0 1 59.996007 224.63376)" font-size="10" font-family="DejaVuSans"><tspan y="0" x="17.390002">T</tspan></text>
<path transform="matrix(.010000001,0,0,-.010000001,81.80851,224.63376)" d="M306 484C258 484 220 465 192 427 164 389 150 338 150 273 150 207 163 156 191 118 219 80 257 62 306 62 354 62 392 80 420 118 448 156 462 207 462 273 462 337 448 389 420 427 392 465 354 484 306 484ZM306 560C384 560 445 534 490 484 534 433 557 363 557 273 557 183 534 113 490 63 445 12 384-13 306-13 227-13 165 12 121 63 77 113 55 183 55 273 55 363 77 433 121 484 165 534 227 560 306 560Z"/>
<text fill-opacity="0" xml:space="preserve" transform="matrix(1 0 -0 1 59.996007 224.63376)" font-size="10" font-family="DejaVuSans"><tspan y="0" x="21.812502">o</tspan></text>
<path transform="matrix(.010000001,0,0,-.010000001,87.92851,224.63376)" d="M181 82V-207H91V547H181V464C199 496 223 520 252 536 281 552 316 560 356 560 422 560 476 533 518 481 559 428 580 359 580 273 580 187 559 117 518 65 476 13 422-13 356-13 316-13 281-5 252 10 223 25 199 49 181 82ZM487 273C487 339 473 390 446 428 418 466 381 485 334 485 286 485 249 466 222 428 194 390 181 339 181 273 181 207 194 155 222 117 249 79 286 61 334 61 381 61 418 79 446 117 473 155 487 207 487 273Z"/>
<text fill-opacity="0" xml:space="preserve" transform="matrix(1 0 -0 1 59.996007 224.63376)" font-size="10" font-family="DejaVuSans"><tspan y="0" x="27.932503">p</tspan></text>
<path transform="matrix(.010000001,0,0,-.010000001,94.2785,224.63376)" d="M94 547H184V0H94V547ZM94 760H184V646H94V760Z"/>
<text fill-opacity="0" xml:space="preserve" transform="matrix(1 0 -0 1 59.996007 224.63376)" font-size="10" font-family="DejaVuSans"><tspan y="0" x="34.2825">i</tspan></text>
<path transform="matrix(.010000001,0,0,-.010000001,97.0585,224.63376)" d="M488 526V442C462 456 437 466 411 473 385 480 360 484 334 484 276 484 230 465 198 428 166 391 150 339 150 273 150 206 166 154 198 117 230 80 276 62 334 62 360 62 385 65 411 72 437 79 462 90 488 104V21C462 9 436 0 410-5 383-10 354-13 324-13 242-13 176 12 128 64 79 115 55 185 55 273 55 362 79 432 128 483 177 534 244 560 330 560 358 560 385 557 411 551 437 545 463 537 488 526Z"/>
<text fill-opacity="0" xml:space="preserve" transform="matrix(1 0 -0 1 59.996007 224.63376)" font-size="10" font-family="DejaVuSans"><tspan y="0" x="37.0625">c</tspan></text>
<path transform="matrix(1,0,0,-1,0,252)" d="M143.63629 41.96V38.46"/>
<path transform="matrix(1,0,0,-1,0,252)" stroke-width=".8" stroke-linecap="butt" stroke-linejoin="round" fill="none" stroke="#000000" d="M143.63629 41.96V38.46"/>
<path transform="matrix(.010000001,0,0,-.010000001,122.03473,224.63376)" d="M394 662C322 662 265 635 223 582 181 528 160 456 160 364 160 272 181 199 223 146 265 92 322 66 394 66 465 66 522 92 564 146 606 199 627 272 627 364 627 456 606 528 564 582 522 635 465 662 394 662ZM394 742C496 742 577 707 639 639 700 571 731 479 731 364 731 248 700 157 639 89 577 21 496-13 394-13 291-13 209 21 148 89 86 157 56 248 56 364 56 479 86 571 148 639 209 707 291 742 394 742Z"/>
<text fill-opacity="0" xml:space="preserve" transform="matrix(1 0 -0 1 122.03473 224.63376)" font-size="10" font-family="DejaVuSans"><tspan y="0" x="0">O</tspan></text>
<path transform="matrix(.010000001,0,0,-.010000001,129.90473,224.63376)" d="M371 760V685H285C253 685 230 678 218 665 205 652 199 629 199 595V547H347V477H199V0H109V477H23V547H109V585C109 645 123 690 151 718 179 746 224 760 286 760H371Z"/>
<text fill-opacity="0" xml:space="preserve" transform="matrix(1 0 -0 1 122.03473 224.63376)" font-size="10" font-family="DejaVuSans"><tspan y="0" x="7.870001">f</tspan></text>
<path transform="matrix(.010000001,0,0,-.010000001,133.42473,224.63376)" d="M371 760V685H285C253 685 230 678 218 665 205 652 199 629 199 595V547H347V477H199V0H109V477H23V547H109V585C109 645 123 690 151 718 179 746 224 760 286 760H371Z"/>
<text fill-opacity="0" xml:space="preserve" transform="matrix(1 0 -0 1 122.03473 224.63376)" font-size="10" font-family="DejaVuSans"><tspan y="0" x="11.390001">f</tspan></text>
<path transform="matrix(.010000001,0,0,-.010000001,136.94474,224.63376)" d=""/>
<text fill-opacity="0" xml:space="preserve" transform="matrix(1 0 -0 1 122.03473 224.63376)" font-size="10" font-family="DejaVuSans"><tspan y="0" x="14.910002"> </tspan></text>
<path transform="matrix(.010000001,0,0,-.010000001,140.12473,224.63376)" d="M-2 729H614V646H355V0H256V646H-2V729Z"/>
<text fill-opacity="0" xml:space="preserve" transform="matrix(1 0 -0 1 122.03473 224.63376)" font-size="10" font-family="DejaVuSans"><tspan y="0" x="18.090003">T</tspan></text>
<path transform="matrix(.010000001,0,0,-.010000001,144.54723,224.63376)" d="M306 484C258 484 220 465 192 427 164 389 150 338 150 273 150 207 163 156 191 118 219 80 257 62 306 62 354 62 392 80 420 118 448 156 462 207 462 273 462 337 448 389 420 427 392 465 354 484 306 484ZM306 560C384 560 445 534 490 484 534 433 557 363 557 273 557 183 534 113 490 63 445 12 384-13 306-13 227-13 165 12 121 63 77 113 55 183 55 273 55 363 77 433 121 484 165 534 227 560 306 560Z"/>
<text fill-opacity="0" xml:space="preserve" transform="matrix(1 0 -0 1 122.03473 224.63376)" font-size="10" font-family="DejaVuSans"><tspan y="0" x="22.512503">o</tspan></text>
<path transform="matrix(.010000001,0,0,-.010000001,150.66724,224.63376)" d="M181 82V-207H91V547H181V464C199 496 223 520 252 536 281 552 316 560 356 560 422 560 476 533 518 481 559 428 580 359 580 273 580 187 559 117 518 65 476 13 422-13 356-13 316-13 281-5 252 10 223 25 199 49 181 82ZM487 273C487 339 473 390 446 428 418 466 381 485 334 485 286 485 249 466 222 428 194 390 181 339 181 273 181 207 194 155 222 117 249 79 286 61 334 61 381 61 418 79 446 117 473 155 487 207 487 273Z"/>
<text fill-opacity="0" xml:space="preserve" transform="matrix(1 0 -0 1 122.03473 224.63376)" font-size="10" font-family="DejaVuSans"><tspan y="0" x="28.632504">p</tspan></text>
<path transform="matrix(.010000001,0,0,-.010000001,157.01725,224.63376)" d="M94 547H184V0H94V547ZM94 760H184V646H94V760Z"/>
<text fill-opacity="0" xml:space="preserve" transform="matrix(1 0 -0 1 122.03473 224.63376)" font-size="10" font-family="DejaVuSans"><tspan y="0" x="34.982507">i</tspan></text>
<path transform="matrix(.010000001,0,0,-.010000001,159.79724,224.63376)" d="M488 526V442C462 456 437 466 411 473 385 480 360 484 334 484 276 484 230 465 198 428 166 391 150 339 150 273 150 206 166 154 198 117 230 80 276 62 334 62 360 62 385 65 411 72 437 79 462 90 488 104V21C462 9 436 0 410-5 383-10 354-13 324-13 242-13 176 12 128 64 79 115 55 185 55 273 55 362 79 432 128 483 177 534 244 560 330 560 358 560 385 557 411 551 437 545 463 537 488 526Z"/>
<text fill-opacity="0" xml:space="preserve" transform="matrix(1 0 -0 1 122.03473 224.63376)" font-size="10" font-family="DejaVuSans"><tspan y="0" x="37.762506">c</tspan></text>
<path transform="matrix(1,0,0,-1,0,252)" d="M206.01877 41.96V38.46"/>
<path transform="matrix(1,0,0,-1,0,252)" stroke-width=".8" stroke-linecap="butt" stroke-linejoin="round" fill="none" stroke="#000000" d="M206.01877 41.96V38.46"/>
<path transform="matrix(.010000001,0,0,-.010000001,169.52658,224.63376)" d="M444 342C465 334 486 319 506 296 526 272 546 240 566 199L666 0H560L467 187C443 235 419 268 397 284 374 300 343 308 304 308H197V0H98V729H321C404 729 466 711 507 677 548 642 569 589 569 519 569 473 558 434 537 404 515 374 484 353 444 342ZM197 648V389H321C368 389 404 400 428 422 452 444 465 476 465 519 465 561 452 593 428 615 404 637 368 648 321 648H197Z"/>
<text fill-opacity="0" xml:space="preserve" transform="matrix(1 0 -0 1 169.52658 224.63376)" font-size="10" font-family="DejaVuSans"><tspan y="0" x="0">R</tspan></text>
<path transform="matrix(.010000001,0,0,-.010000001,176.25783,224.63376)" d="M343 275C270 275 220 266 192 250 164 233 150 205 150 165 150 133 160 107 181 89 202 70 231 61 267 61 317 61 357 78 387 114 417 149 432 196 432 255V275H343ZM522 312V0H432V83C411 49 385 25 355 10 325-5 287-13 243-13 187-13 142 2 109 33 76 64 60 106 60 159 60 220 80 266 122 298 163 329 224 345 306 345H432V354C432 395 418 427 391 450 364 472 326 484 277 484 245 484 215 480 185 472 155 464 127 453 100 439V522C132 534 164 544 195 550 226 556 256 560 286 560 365 560 424 539 463 498 502 457 522 395 522 312Z"/>
<text fill-opacity="0" xml:space="preserve" transform="matrix(1 0 -0 1 169.52658 224.63376)" font-size="10" font-family="DejaVuSans"><tspan y="0" x="6.731251">a</tspan></text>
<path transform="matrix(.010000001,0,0,-.010000001,182.38784,224.63376)" d="M549 330V0H459V327C459 379 448 417 428 443 408 469 378 482 338 482 289 482 251 466 223 435 195 404 181 362 181 309V0H91V547H181V462C202 494 227 519 257 535 286 551 320 560 358 560 420 560 468 540 500 501 532 462 549 405 549 330Z"/>
<text fill-opacity="0" xml:space="preserve" transform="matrix(1 0 -0 1 169.52658 224.63376)" font-size="10" font-family="DejaVuSans"><tspan y="0" x="12.861251">n</tspan></text>
<path transform="matrix(.010000001,0,0,-.010000001,188.72783,224.63376)" d="M454 464V760H544V0H454V82C435 49 411 25 382 10 353-5 319-13 279-13 213-13 159 13 117 65 75 117 55 187 55 273 55 359 75 428 117 481 159 533 213 560 279 560 319 560 353 552 382 536 411 520 435 496 454 464ZM148 273C148 207 161 155 188 117 215 79 252 61 300 61 348 61 385 79 413 117 440 155 454 207 454 273 454 339 440 390 413 428 385 466 348 485 300 485 252 485 215 466 188 428 161 390 148 339 148 273Z"/>
<text fill-opacity="0" xml:space="preserve" transform="matrix(1 0 -0 1 169.52658 224.63376)" font-size="10" font-family="DejaVuSans"><tspan y="0" x="19.201252">d</tspan></text>
<path transform="matrix(.010000001,0,0,-.010000001,195.07784,224.63376)" d="M306 484C258 484 220 465 192 427 164 389 150 338 150 273 150 207 163 156 191 118 219 80 257 62 306 62 354 62 392 80 420 118 448 156 462 207 462 273 462 337 448 389 420 427 392 465 354 484 306 484ZM306 560C384 560 445 534 490 484 534 433 557 363 557 273 557 183 534 113 490 63 445 12 384-13 306-13 227-13 165 12 121 63 77 113 55 183 55 273 55 363 77 433 121 484 165 534 227 560 306 560Z"/>
<text fill-opacity="0" xml:space="preserve" transform="matrix(1 0 -0 1 169.52658 224.63376)" font-size="10" font-family="DejaVuSans"><tspan y="0" x="25.551253">o</tspan></text>
<path transform="matrix(.010000001,0,0,-.010000001,201.19783,224.63376)" d="M520 442C542 482 569 511 600 531 631 550 668 560 711 560 767 560 811 540 842 500 873 460 889 403 889 330V0H799V327C799 379 789 418 771 444 752 469 724 482 686 482 639 482 602 466 575 435 548 404 535 362 535 309V0H445V327C445 379 435 418 417 444 398 469 369 482 331 482 285 482 248 466 221 435 194 404 181 362 181 309V0H91V547H181V462C201 495 226 520 255 536 283 552 317 560 357 560 397 560 430 550 458 530 486 510 506 480 520 442Z"/>
<text fill-opacity="0" xml:space="preserve" transform="matrix(1 0 -0 1 169.52658 224.63376)" font-size="10" font-family="DejaVuSans"><tspan y="0" x="31.671254">m</tspan></text>
<path transform="matrix(.010000001,0,0,-.010000001,210.93784,224.63376)" d=""/>
<text fill-opacity="0" xml:space="preserve" transform="matrix(1 0 -0 1 169.52658 224.63376)" font-size="10" font-family="DejaVuSans"><tspan y="0" x="41.411256"> </tspan></text>
<path transform="matrix(.010000001,0,0,-.010000001,214.11783,224.63376)" d="M-2 729H614V646H355V0H256V646H-2V729Z"/>
<text fill-opacity="0" xml:space="preserve" transform="matrix(1 0 -0 1 169.52658 224.63376)" font-size="10" font-family="DejaVuSans"><tspan y="0" x="44.591257">T</tspan></text>
<path transform="matrix(.010000001,0,0,-.010000001,218.54035,224.63376)" d="M306 484C258 484 220 465 192 427 164 389 150 338 150 273 150 207 163 156 191 118 219 80 257 62 306 62 354 62 392 80 420 118 448 156 462 207 462 273 462 337 448 389 420 427 392 465 354 484 306 484ZM306 560C384 560 445 534 490 484 534 433 557 363 557 273 557 183 534 113 490 63 445 12 384-13 306-13 227-13 165 12 121 63 77 113 55 183 55 273 55 363 77 433 121 484 165 534 227 560 306 560Z"/>
<text fill-opacity="0" xml:space="preserve" transform="matrix(1 0 -0 1 169.52658 224.63376)" font-size="10" font-family="DejaVuSans"><tspan y="0" x="49.013757">o</tspan></text>
<path transform="matrix(.010000001,0,0,-.010000001,224.66034,224.63376)" d="M91 760H181V311L449 547H564L274 291 576 0H459L181 267V0H91V760Z"/>
<text fill-opacity="0" xml:space="preserve" transform="matrix(1 0 -0 1 169.52658 224.63376)" font-size="10" font-family="DejaVuSans"><tspan y="0" x="55.133756">k</tspan></text>
<path transform="matrix(.010000001,0,0,-.010000001,230.10659,224.63376)" d="M562 296V252H149C153 190 171 142 205 110 238 78 284 62 344 62 378 62 412 66 444 74 476 82 509 95 541 113V28C509 14 476 3 442-3 408-9 373-13 339-13 251-13 182 12 131 62 80 112 55 181 55 268 55 357 79 428 127 481 175 533 241 560 323 560 397 560 455 536 498 489 540 441 562 377 562 296ZM472 322C471 371 457 410 431 440 404 469 368 484 324 484 274 484 234 469 204 441 174 413 156 373 152 322H472Z"/>
<text fill-opacity="0" xml:space="preserve" transform="matrix(1 0 -0 1 169.52658 224.63376)" font-size="10" font-family="DejaVuSans"><tspan y="0" x="60.580007">e</tspan></text>
<path transform="matrix(.010000001,0,0,-.010000001,236.25659,224.63376)" d="M549 330V0H459V327C459 379 448 417 428 443 408 469 378 482 338 482 289 482 251 466 223 435 195 404 181 362 181 309V0H91V547H181V462C202 494 227 519 257 535 286 551 320 560 358 560 420 560 468 540 500 501 532 462 549 405 549 330Z"/>
<text fill-opacity="0" xml:space="preserve" transform="matrix(1 0 -0 1 169.52658 224.63376)" font-size="10" font-family="DejaVuSans"><tspan y="0" x="66.73">n</tspan></text>
<path transform="matrix(.010000001,0,0,-.010000001,104.51129,238.30562)" d="M644 673V569C610 599 575 622 537 638 499 653 460 661 418 661 334 661 270 635 226 584 182 533 160 460 160 364 160 268 182 194 226 143 270 92 334 67 418 67 460 67 499 74 537 90 575 105 610 128 644 159V56C609 32 572 15 534 4 496-7 455-13 412-13 302-13 215 20 151 87 87 154 56 246 56 364 56 481 87 573 151 641 215 708 302 742 412 742 456 742 497 736 535 725 573 713 610 696 644 673Z"/>
<text fill-opacity="0" xml:space="preserve" transform="matrix(1 0 -0 1 104.51129 238.30562)" font-size="10" font-family="DejaVuSans"><tspan y="0" x="0">C</tspan></text>
<path transform="matrix(.010000001,0,0,-.010000001,111.491298,238.30562)" d="M306 484C258 484 220 465 192 427 164 389 150 338 150 273 150 207 163 156 191 118 219 80 257 62 306 62 354 62 392 80 420 118 448 156 462 207 462 273 462 337 448 389 420 427 392 465 354 484 306 484ZM306 560C384 560 445 534 490 484 534 433 557 363 557 273 557 183 534 113 490 63 445 12 384-13 306-13 227-13 165 12 121 63 77 113 55 183 55 273 55 363 77 433 121 484 165 534 227 560 306 560Z"/>
<text fill-opacity="0" xml:space="preserve" transform="matrix(1 0 -0 1 104.51129 238.30562)" font-size="10" font-family="DejaVuSans"><tspan y="0" x="6.98">o</tspan></text>
<path transform="matrix(.010000001,0,0,-.010000001,117.61129,238.30562)" d="M549 330V0H459V327C459 379 448 417 428 443 408 469 378 482 338 482 289 482 251 466 223 435 195 404 181 362 181 309V0H91V547H181V462C202 494 227 519 257 535 286 551 320 560 358 560 420 560 468 540 500 501 532 462 549 405 549 330Z"/>
<text fill-opacity="0" xml:space="preserve" transform="matrix(1 0 -0 1 104.51129 238.30562)" font-size="10" font-family="DejaVuSans"><tspan y="0" x="13.1">n</tspan></text>
<path transform="matrix(.010000001,0,0,-.010000001,123.951297,238.30562)" d="M183 702V547H368V477H183V180C183 135 189 106 201 94 213 81 238 75 276 75H368V0H276C206 0 158 13 132 39 106 65 93 112 93 180V477H27V547H93V702H183Z"/>
<text fill-opacity="0" xml:space="preserve" transform="matrix(1 0 -0 1 104.51129 238.30562)" font-size="10" font-family="DejaVuSans"><tspan y="0" x="19.44">t</tspan></text>
<path transform="matrix(.010000001,0,0,-.010000001,127.87129,238.30562)" d="M562 296V252H149C153 190 171 142 205 110 238 78 284 62 344 62 378 62 412 66 444 74 476 82 509 95 541 113V28C509 14 476 3 442-3 408-9 373-13 339-13 251-13 182 12 131 62 80 112 55 181 55 268 55 357 79 428 127 481 175 533 241 560 323 560 397 560 455 536 498 489 540 441 562 377 562 296ZM472 322C471 371 457 410 431 440 404 469 368 484 324 484 274 484 234 469 204 441 174 413 156 373 152 322H472Z"/>
<text fill-opacity="0" xml:space="preserve" transform="matrix(1 0 -0 1 104.51129 238.30562)" font-size="10" font-family="DejaVuSans"><tspan y="0" x="23.36">e</tspan></text>
<path transform="matrix(.010000001,0,0,-.010000001,133.84941,238.30562)" d="M549 547 351 281 559 0H453L294 215 135 0H29L241 286 47 547H153L298 352 443 547H549Z"/>
<text fill-opacity="0" xml:space="preserve" transform="matrix(1 0 -0 1 104.51129 238.30562)" font-size="10" font-family="DejaVuSans"><tspan y="0" x="29.338126">x</tspan></text>
<path transform="matrix(.010000001,0,0,-.010000001,139.76941,238.30562)" d="M183 702V547H368V477H183V180C183 135 189 106 201 94 213 81 238 75 276 75H368V0H276C206 0 158 13 132 39 106 65 93 112 93 180V477H27V547H93V702H183Z"/>
<text fill-opacity="0" xml:space="preserve" transform="matrix(1 0 -0 1 104.51129 238.30562)" font-size="10" font-family="DejaVuSans"><tspan y="0" x="35.258127">t</tspan></text>
<path transform="matrix(.010000001,0,0,-.010000001,143.68943,238.30562)" d=""/>
<text fill-opacity="0" xml:space="preserve" transform="matrix(1 0 -0 1 104.51129 238.30562)" font-size="10" font-family="DejaVuSans"><tspan y="0" x="39.178125"> </tspan></text>
<path transform="matrix(.010000001,0,0,-.010000001,146.86942,238.30562)" d="M535 705V609C497 627 462 640 429 649 395 657 363 662 333 662 279 662 237 651 208 631 179 610 165 580 165 542 165 510 174 485 194 469 213 452 250 439 304 429L364 417C437 403 491 378 526 343 561 307 579 260 579 201 579 130 555 77 508 41 460 5 391-13 300-13 265-13 228-9 189-2 150 5 110 16 69 32V134C109 111 148 94 186 83 224 71 262 66 300 66 356 66 399 77 430 99 460 121 476 152 476 194 476 230 465 258 443 278 421 298 385 313 335 323L275 335C201 349 148 372 115 404 82 435 66 478 66 534 66 598 88 649 134 686 179 723 242 742 322 742 356 742 390 739 426 733 461 727 497 717 535 705Z"/>
<text fill-opacity="0" xml:space="preserve" transform="matrix(1 0 -0 1 104.51129 238.30562)" font-size="10" font-family="DejaVuSans"><tspan y="0" x="42.358125">S</tspan></text>
<path transform="matrix(.010000001,0,0,-.010000001,153.21942,238.30562)" d="M562 296V252H149C153 190 171 142 205 110 238 78 284 62 344 62 378 62 412 66 444 74 476 82 509 95 541 113V28C509 14 476 3 442-3 408-9 373-13 339-13 251-13 182 12 131 62 80 112 55 181 55 268 55 357 79 428 127 481 175 533 241 560 323 560 397 560 455 536 498 489 540 441 562 377 562 296ZM472 322C471 371 457 410 431 440 404 469 368 484 324 484 274 484 234 469 204 441 174 413 156 373 152 322H472Z"/>
<text fill-opacity="0" xml:space="preserve" transform="matrix(1 0 -0 1 104.51129 238.30562)" font-size="10" font-family="DejaVuSans"><tspan y="0" x="48.708124">e</tspan></text>
<path transform="matrix(.010000001,0,0,-.010000001,159.36942,238.30562)" d="M183 702V547H368V477H183V180C183 135 189 106 201 94 213 81 238 75 276 75H368V0H276C206 0 158 13 132 39 106 65 93 112 93 180V477H27V547H93V702H183Z"/>
<text fill-opacity="0" xml:space="preserve" transform="matrix(1 0 -0 1 104.51129 238.30562)" font-size="10" font-family="DejaVuSans"><tspan y="0" x="54.858125">t</tspan></text>
<path transform="matrix(.010000001,0,0,-.010000001,163.28942,238.30562)" d="M183 702V547H368V477H183V180C183 135 189 106 201 94 213 81 238 75 276 75H368V0H276C206 0 158 13 132 39 106 65 93 112 93 180V477H27V547H93V702H183Z"/>
<text fill-opacity="0" xml:space="preserve" transform="matrix(1 0 -0 1 104.51129 238.30562)" font-size="10" font-family="DejaVuSans"><tspan y="0" x="58.778123">t</tspan></text>
<path transform="matrix(.010000001,0,0,-.010000001,167.20941,238.30562)" d="M94 547H184V0H94V547ZM94 760H184V646H94V760Z"/>
<text fill-opacity="0" xml:space="preserve" transform="matrix(1 0 -0 1 104.51129 238.30562)" font-size="10" font-family="DejaVuSans"><tspan y="0" x="62.69812">i</tspan></text>
<path transform="matrix(.010000001,0,0,-.010000001,169.98941,238.30562)" d="M549 330V0H459V327C459 379 448 417 428 443 408 469 378 482 338 482 289 482 251 466 223 435 195 404 181 362 181 309V0H91V547H181V462C202 494 227 519 257 535 286 551 320 560 358 560 420 560 468 540 500 501 532 462 549 405 549 330Z"/>
<text fill-opacity="0" xml:space="preserve" transform="matrix(1 0 -0 1 104.51129 238.30562)" font-size="10" font-family="DejaVuSans"><tspan y="0" x="65.47812">n</tspan></text>
<path transform="matrix(.010000001,0,0,-.010000001,176.3294,238.30562)" d="M454 280C454 344 440 395 414 431 387 467 349 485 301 485 253 485 215 467 188 431 161 395 148 344 148 280 148 215 161 165 188 129 215 93 253 75 301 75 349 75 387 93 414 129 440 165 454 215 454 280ZM544 68C544-24 523-93 482-139 440-184 377-207 292-207 260-207 231-204 203-200 175-195 147-188 121-178V-91C147-105 173-115 199-122 225-129 251-133 278-133 336-133 380-117 410-87 439-56 454-10 454 52V96C435 64 411 40 382 24 353 8 319 0 279 0 211 0 157 25 116 76 75 127 55 195 55 280 55 364 75 432 116 483 157 534 211 560 279 560 319 560 353 552 382 536 411 520 435 496 454 464V547H544V68Z"/>
<text fill-opacity="0" xml:space="preserve" transform="matrix(1 0 -0 1 104.51129 238.30562)" font-size="10" font-family="DejaVuSans"><tspan y="0" x="71.818119">g</tspan></text>
<g clip-path="url(#clip_0)">
<path transform="matrix(1,0,0,-1,0,252)" stroke-width=".8" stroke-linecap="square" stroke-linejoin="round" fill="none" stroke="#b0b0b0" d="M50.06258 41.96H237.21"/>
</g>
<path transform="matrix(1,0,0,-1,0,252)" d="M50.06258 41.96H46.56258"/>
<path transform="matrix(1,0,0,-1,0,252)" stroke-width=".8" stroke-linecap="butt" stroke-linejoin="round" fill="none" stroke="#000000" d="M50.06258 41.96H46.56258"/>
<path transform="matrix(.010000001,0,0,-.010000001,25.441489,213.93689)" d="M124 83H285V639L110 604V694L284 729H383V83H544V0H124V83Z"/>
<text fill-opacity="0" xml:space="preserve" transform="matrix(1 0 -0 1 17.062582 214.00095)" font-size="10" font-family="DejaVuSans"><tspan y="-.0640625" x="8.378906">1</tspan></text>
<path transform="matrix(.010000001,0,0,-.010000001,31.803793,213.93689)" d="M318 664C267 664 229 639 203 589 177 539 165 464 165 364 165 264 177 189 203 139 229 89 267 64 318 64 369 64 407 89 433 139 458 189 471 264 471 364 471 464 458 539 433 589 407 639 369 664 318 664ZM318 742C399 742 461 709 505 645 548 580 570 486 570 364 570 241 548 147 505 83 461 19 399-13 317-13 235-13 173 19 130 83 87 147 66 241 66 364 66 486 87 580 130 645 173 709 236 742 318 742Z"/>
<text fill-opacity="0" xml:space="preserve" transform="matrix(1 0 -0 1 17.062582 214.00095)" font-size="10" font-family="DejaVuSans"><tspan y="-.0640625" x="14.741211">0</tspan></text>
<path transform="matrix(.007,0,0,-.007,38.261804,210.10877)" d="M124 83H285V639L110 604V694L284 729H383V83H544V0H124V83Z"/>
<text fill-opacity="0" xml:space="preserve" transform="matrix(1 0 -0 1 17.062582 214.00095)" font-size="7" font-family="DejaVuSans"><tspan y="-3.8921877" x="21.199219">1</tspan></text>
<g clip-path="url(#clip_1)">
<path transform="matrix(.01,0,0,-.01,17.062582,213.93689)" d="M106 355H732V272H106V355Z"/>
</g>
<g clip-path="url(#clip_2)">
<path transform="matrix(1,0,0,-1,0,252)" stroke-width=".8" stroke-linecap="square" stroke-linejoin="round" fill="none" stroke="#b0b0b0" d="M50.06258 58.412786H237.21"/>
</g>
<path transform="matrix(1,0,0,-1,0,252)" d="M50.06258 58.412786H46.56258"/>
<path transform="matrix(1,0,0,-1,0,252)" stroke-width=".8" stroke-linecap="butt" stroke-linejoin="round" fill="none" stroke="#000000" d="M50.06258 58.412786H46.56258"/>
<path transform="matrix(.010000001,0,0,-.010000001,25.441489,197.0716)" d="M124 83H285V639L110 604V694L284 729H383V83H544V0H124V83Z"/>
<text fill-opacity="0" xml:space="preserve" transform="matrix(1 0 -0 1 17.062582 198.04816)" font-size="10" font-family="DejaVuSans"><tspan y="-.9765625" x="8.378906">1</tspan></text>
<path transform="matrix(.010000001,0,0,-.010000001,31.803793,197.0716)" d="M318 664C267 664 229 639 203 589 177 539 165 464 165 364 165 264 177 189 203 139 229 89 267 64 318 64 369 64 407 89 433 139 458 189 471 264 471 364 471 464 458 539 433 589 407 639 369 664 318 664ZM318 742C399 742 461 709 505 645 548 580 570 486 570 364 570 241 548 147 505 83 461 19 399-13 317-13 235-13 173 19 130 83 87 147 66 241 66 364 66 486 87 580 130 645 173 709 236 742 318 742Z"/>
<text fill-opacity="0" xml:space="preserve" transform="matrix(1 0 -0 1 17.062582 198.04816)" font-size="10" font-family="DejaVuSans"><tspan y="-.9765625" x="14.741211">0</tspan></text>
<path transform="matrix(.007,0,0,-.007,38.261804,193.24347)" d="M318 664C267 664 229 639 203 589 177 539 165 464 165 364 165 264 177 189 203 139 229 89 267 64 318 64 369 64 407 89 433 139 458 189 471 264 471 364 471 464 458 539 433 589 407 639 369 664 318 664ZM318 742C399 742 461 709 505 645 548 580 570 486 570 364 570 241 548 147 505 83 461 19 399-13 317-13 235-13 173 19 130 83 87 147 66 241 66 364 66 486 87 580 130 645 173 709 236 742 318 742Z"/>
<text fill-opacity="0" xml:space="preserve" transform="matrix(1 0 -0 1 17.062582 198.04816)" font-size="7" font-family="DejaVuSans"><tspan y="-4.8046877" x="21.199219">0</tspan></text>
<g clip-path="url(#clip_3)">
<path transform="matrix(.01,0,0,-.01,17.062582,197.0716)" d="M106 355H732V272H106V355Z"/>
</g>
<g clip-path="url(#clip_4)">
<path transform="matrix(1,0,0,-1,0,252)" stroke-width=".8" stroke-linecap="square" stroke-linejoin="round" fill="none" stroke="#b0b0b0" d="M50.06258 74.86556H237.21"/>
</g>
<path transform="matrix(1,0,0,-1,0,252)" d="M50.06258 74.86556H46.56258"/>
<path transform="matrix(1,0,0,-1,0,252)" stroke-width=".8" stroke-linecap="butt" stroke-linejoin="round" fill="none" stroke="#000000" d="M50.06258 74.86556H46.56258"/>
<path transform="matrix(.010000001,0,0,-.010000001,19.441487,181.03131)" d="M124 83H285V639L110 604V694L284 729H383V83H544V0H124V83Z"/>
<text fill-opacity="0" xml:space="preserve" transform="matrix(1 0 -0 1 11.062581 181.09537)" font-size="10" font-family="DejaVuSans"><tspan y="-.0640625" x="8.378906">1</tspan></text>
<path transform="matrix(.010000001,0,0,-.010000001,25.803791,181.03131)" d="M318 664C267 664 229 639 203 589 177 539 165 464 165 364 165 264 177 189 203 139 229 89 267 64 318 64 369 64 407 89 433 139 458 189 471 264 471 364 471 464 458 539 433 589 407 639 369 664 318 664ZM318 742C399 742 461 709 505 645 548 580 570 486 570 364 570 241 548 147 505 83 461 19 399-13 317-13 235-13 173 19 130 83 87 147 66 241 66 364 66 486 87 580 130 645 173 709 236 742 318 742Z"/>
<text fill-opacity="0" xml:space="preserve" transform="matrix(1 0 -0 1 11.062581 181.09537)" font-size="10" font-family="DejaVuSans"><tspan y="-.0640625" x="14.741211">0</tspan></text>
<path transform="matrix(.007,0,0,-.007,38.127035,177.20319)" d="M124 83H285V639L110 604V694L284 729H383V83H544V0H124V83Z"/>
<text fill-opacity="0" xml:space="preserve" transform="matrix(1 0 -0 1 11.062581 181.09537)" font-size="7" font-family="DejaVuSans"><tspan y="-3.8921877" x="27.064454">1</tspan></text>
<g clip-path="url(#clip_5)">
<path transform="matrix(.01,0,0,-.01,11.062581,181.03131)" d="M106 355H732V272H106V355Z"/>
</g>
<g clip-path="url(#clip_6)">
<path transform="matrix(.007,0,0,-.007,32.2618,177.20319)" d="M106 355H732V272H106V355Z"/>
</g>
<g clip-path="url(#clip_7)">
<path transform="matrix(1,0,0,-1,0,252)" stroke-width=".8" stroke-linecap="square" stroke-linejoin="round" fill="none" stroke="#b0b0b0" d="M50.06258 91.31835H237.21"/>
</g>
<path transform="matrix(1,0,0,-1,0,252)" d="M50.06258 91.31835H46.56258"/>
<path transform="matrix(1,0,0,-1,0,252)" stroke-width=".8" stroke-linecap="butt" stroke-linejoin="round" fill="none" stroke="#000000" d="M50.06258 91.31835H46.56258"/>
<path transform="matrix(.010000001,0,0,-.010000001,19.441487,164.16603)" d="M124 83H285V639L110 604V694L284 729H383V83H544V0H124V83Z"/>
<text fill-opacity="0" xml:space="preserve" transform="matrix(1 0 -0 1 11.062581 165.1426)" font-size="10" font-family="DejaVuSans"><tspan y="-.9765625" x="8.378906">1</tspan></text>
<path transform="matrix(.010000001,0,0,-.010000001,25.803791,164.16603)" d="M318 664C267 664 229 639 203 589 177 539 165 464 165 364 165 264 177 189 203 139 229 89 267 64 318 64 369 64 407 89 433 139 458 189 471 264 471 364 471 464 458 539 433 589 407 639 369 664 318 664ZM318 742C399 742 461 709 505 645 548 580 570 486 570 364 570 241 548 147 505 83 461 19 399-13 317-13 235-13 173 19 130 83 87 147 66 241 66 364 66 486 87 580 130 645 173 709 236 742 318 742Z"/>
<text fill-opacity="0" xml:space="preserve" transform="matrix(1 0 -0 1 11.062581 165.1426)" font-size="10" font-family="DejaVuSans"><tspan y="-.9765625" x="14.741211">0</tspan></text>
<path transform="matrix(.007,0,0,-.007,38.127035,160.3379)" d="M192 83H536V0H73V83C110 121 161 173 226 239 290 304 331 346 348 365 380 400 402 430 414 455 426 479 433 504 433 528 433 566 419 598 392 622 365 646 330 659 286 659 255 659 222 653 188 643 154 632 117 616 78 594V694C118 710 155 722 189 730 223 738 255 742 284 742 359 742 419 723 464 685 509 647 532 597 532 534 532 504 526 475 515 449 504 422 484 390 454 354 446 344 420 317 376 272 332 227 271 164 192 83Z"/>
<text fill-opacity="0" xml:space="preserve" transform="matrix(1 0 -0 1 11.062581 165.1426)" font-size="7" font-family="DejaVuSans"><tspan y="-4.8046877" x="27.064454">2</tspan></text>
<g clip-path="url(#clip_8)">
<path transform="matrix(.01,0,0,-.01,11.062581,164.16603)" d="M106 355H732V272H106V355Z"/>
</g>
<g clip-path="url(#clip_9)">
<path transform="matrix(.007,0,0,-.007,32.2618,160.3379)" d="M106 355H732V272H106V355Z"/>
</g>
<g clip-path="url(#clip_10)">
<path transform="matrix(1,0,0,-1,0,252)" stroke-width=".8" stroke-linecap="square" stroke-linejoin="round" fill="none" stroke="#b0b0b0" d="M50.06258 109.59922H237.21"/>
</g>
<path transform="matrix(1,0,0,-1,0,252)" d="M50.06258 109.59922H46.56258"/>
<path transform="matrix(1,0,0,-1,0,252)" stroke-width=".8" stroke-linecap="butt" stroke-linejoin="round" fill="none" stroke="#000000" d="M50.06258 109.59922H46.56258"/>
<path transform="matrix(.010000001,0,0,-.010000001,36.06258,145.61954)" d="M318 664C267 664 229 639 203 589 177 539 165 464 165 364 165 264 177 189 203 139 229 89 267 64 318 64 369 64 407 89 433 139 458 189 471 264 471 364 471 464 458 539 433 589 407 639 369 664 318 664ZM318 742C399 742 461 709 505 645 548 580 570 486 570 364 570 241 548 147 505 83 461 19 399-13 317-13 235-13 173 19 130 83 87 147 66 241 66 364 66 486 87 580 130 645 173 709 236 742 318 742Z"/>
<text fill-opacity="0" xml:space="preserve" transform="matrix(1 0 -0 1 36.06258 146.19766)" font-size="10" font-family="DejaVuSans"><tspan y="-.578125" x="0">0</tspan></text>
<g clip-path="url(#clip_11)">
<path transform="matrix(1,0,0,-1,0,252)" stroke-width=".8" stroke-linecap="square" stroke-linejoin="round" fill="none" stroke="#b0b0b0" d="M50.06258 127.88009H237.21"/>
</g>
<path transform="matrix(1,0,0,-1,0,252)" d="M50.06258 127.88009H46.56258"/>
<path transform="matrix(1,0,0,-1,0,252)" stroke-width=".8" stroke-linecap="butt" stroke-linejoin="round" fill="none" stroke="#000000" d="M50.06258 127.88009H46.56258"/>
<path transform="matrix(.010000001,0,0,-.010000001,19.062582,127.60428)" d="M124 83H285V639L110 604V694L284 729H383V83H544V0H124V83Z"/>
<text fill-opacity="0" xml:space="preserve" transform="matrix(1 0 -0 1 19.062582 128.58084)" font-size="10" font-family="DejaVuSans"><tspan y="-.9765625" x="0">1</tspan></text>
<path transform="matrix(.010000001,0,0,-.010000001,25.424887,127.60428)" d="M318 664C267 664 229 639 203 589 177 539 165 464 165 364 165 264 177 189 203 139 229 89 267 64 318 64 369 64 407 89 433 139 458 189 471 264 471 364 471 464 458 539 433 589 407 639 369 664 318 664ZM318 742C399 742 461 709 505 645 548 580 570 486 570 364 570 241 548 147 505 83 461 19 399-13 317-13 235-13 173 19 130 83 87 147 66 241 66 364 66 486 87 580 130 645 173 709 236 742 318 742Z"/>
<text fill-opacity="0" xml:space="preserve" transform="matrix(1 0 -0 1 19.062582 128.58084)" font-size="10" font-family="DejaVuSans"><tspan y="-.9765625" x="6.3623049">0</tspan></text>
<path transform="matrix(.007,0,0,-.007,37.74813,123.77615)" d="M192 83H536V0H73V83C110 121 161 173 226 239 290 304 331 346 348 365 380 400 402 430 414 455 426 479 433 504 433 528 433 566 419 598 392 622 365 646 330 659 286 659 255 659 222 653 188 643 154 632 117 616 78 594V694C118 710 155 722 189 730 223 738 255 742 284 742 359 742 419 723 464 685 509 647 532 597 532 534 532 504 526 475 515 449 504 422 484 390 454 354 446 344 420 317 376 272 332 227 271 164 192 83Z"/>
<text fill-opacity="0" xml:space="preserve" transform="matrix(1 0 -0 1 19.062582 128.58084)" font-size="7" font-family="DejaVuSans"><tspan y="-4.8046877" x="18.685547">2</tspan></text>
<g clip-path="url(#clip_12)">
<path transform="matrix(.007,0,0,-.007,31.882895,123.77615)" d="M106 355H732V272H106V355Z"/>
</g>
<g clip-path="url(#clip_13)">
<path transform="matrix(1,0,0,-1,0,252)" stroke-width=".8" stroke-linecap="square" stroke-linejoin="round" fill="none" stroke="#b0b0b0" d="M50.06258 144.33287H237.21"/>
</g>
<path transform="matrix(1,0,0,-1,0,252)" d="M50.06258 144.33287H46.56258"/>
<path transform="matrix(1,0,0,-1,0,252)" stroke-width=".8" stroke-linecap="butt" stroke-linejoin="round" fill="none" stroke="#000000" d="M50.06258 144.33287H46.56258"/>
<path transform="matrix(.010000001,0,0,-.010000001,19.062582,111.564)" d="M124 83H285V639L110 604V694L284 729H383V83H544V0H124V83Z"/>
<text fill-opacity="0" xml:space="preserve" transform="matrix(1 0 -0 1 19.062582 111.62807)" font-size="10" font-family="DejaVuSans"><tspan y="-.0640625" x="0">1</tspan></text>
<path transform="matrix(.010000001,0,0,-.010000001,25.424887,111.564)" d="M318 664C267 664 229 639 203 589 177 539 165 464 165 364 165 264 177 189 203 139 229 89 267 64 318 64 369 64 407 89 433 139 458 189 471 264 471 364 471 464 458 539 433 589 407 639 369 664 318 664ZM318 742C399 742 461 709 505 645 548 580 570 486 570 364 570 241 548 147 505 83 461 19 399-13 317-13 235-13 173 19 130 83 87 147 66 241 66 364 66 486 87 580 130 645 173 709 236 742 318 742Z"/>
<text fill-opacity="0" xml:space="preserve" transform="matrix(1 0 -0 1 19.062582 111.62807)" font-size="10" font-family="DejaVuSans"><tspan y="-.0640625" x="6.3623049">0</tspan></text>
<path transform="matrix(.007,0,0,-.007,37.74813,107.73588)" d="M124 83H285V639L110 604V694L284 729H383V83H544V0H124V83Z"/>
<text fill-opacity="0" xml:space="preserve" transform="matrix(1 0 -0 1 19.062582 111.62807)" font-size="7" font-family="DejaVuSans"><tspan y="-3.8921877" x="18.685547">1</tspan></text>
<g clip-path="url(#clip_14)">
<path transform="matrix(.007,0,0,-.007,31.882895,107.73588)" d="M106 355H732V272H106V355Z"/>
</g>
<g clip-path="url(#clip_15)">
<path transform="matrix(1,0,0,-1,0,252)" stroke-width=".8" stroke-linecap="square" stroke-linejoin="round" fill="none" stroke="#b0b0b0" d="M50.06258 160.78565H237.21"/>
</g>
<path transform="matrix(1,0,0,-1,0,252)" d="M50.06258 160.78565H46.56258"/>
<path transform="matrix(1,0,0,-1,0,252)" stroke-width=".8" stroke-linecap="butt" stroke-linejoin="round" fill="none" stroke="#000000" d="M50.06258 160.78565H46.56258"/>
<path transform="matrix(.010000001,0,0,-.010000001,25.062582,94.69873)" d="M124 83H285V639L110 604V694L284 729H383V83H544V0H124V83Z"/>
<text fill-opacity="0" xml:space="preserve" transform="matrix(1 0 -0 1 25.062582 95.67529)" font-size="10" font-family="DejaVuSans"><tspan y="-.9765625" x="0">1</tspan></text>
<path transform="matrix(.010000001,0,0,-.010000001,31.424887,94.69873)" d="M318 664C267 664 229 639 203 589 177 539 165 464 165 364 165 264 177 189 203 139 229 89 267 64 318 64 369 64 407 89 433 139 458 189 471 264 471 364 471 464 458 539 433 589 407 639 369 664 318 664ZM318 742C399 742 461 709 505 645 548 580 570 486 570 364 570 241 548 147 505 83 461 19 399-13 317-13 235-13 173 19 130 83 87 147 66 241 66 364 66 486 87 580 130 645 173 709 236 742 318 742Z"/>
<text fill-opacity="0" xml:space="preserve" transform="matrix(1 0 -0 1 25.062582 95.67529)" font-size="10" font-family="DejaVuSans"><tspan y="-.9765625" x="6.3623049">0</tspan></text>
<path transform="matrix(.007,0,0,-.007,37.882898,90.870609)" d="M318 664C267 664 229 639 203 589 177 539 165 464 165 364 165 264 177 189 203 139 229 89 267 64 318 64 369 64 407 89 433 139 458 189 471 264 471 364 471 464 458 539 433 589 407 639 369 664 318 664ZM318 742C399 742 461 709 505 645 548 580 570 486 570 364 570 241 548 147 505 83 461 19 399-13 317-13 235-13 173 19 130 83 87 147 66 241 66 364 66 486 87 580 130 645 173 709 236 742 318 742Z"/>
<text fill-opacity="0" xml:space="preserve" transform="matrix(1 0 -0 1 25.062582 95.67529)" font-size="7" font-family="DejaVuSans"><tspan y="-4.8046877" x="12.8203129">0</tspan></text>
<g clip-path="url(#clip_16)">
<path transform="matrix(1,0,0,-1,0,252)" stroke-width=".8" stroke-linecap="square" stroke-linejoin="round" fill="none" stroke="#b0b0b0" d="M50.06258 177.23844H237.21"/>
</g>
<path transform="matrix(1,0,0,-1,0,252)" d="M50.06258 177.23844H46.56258"/>
<path transform="matrix(1,0,0,-1,0,252)" stroke-width=".8" stroke-linecap="butt" stroke-linejoin="round" fill="none" stroke="#000000" d="M50.06258 177.23844H46.56258"/>
<path transform="matrix(.010000001,0,0,-.010000001,25.062582,78.65844)" d="M124 83H285V639L110 604V694L284 729H383V83H544V0H124V83Z"/>
<text fill-opacity="0" xml:space="preserve" transform="matrix(1 0 -0 1 25.062582 78.7225)" font-size="10" font-family="DejaVuSans"><tspan y="-.0640625" x="0">1</tspan></text>
<path transform="matrix(.010000001,0,0,-.010000001,31.424887,78.65844)" d="M318 664C267 664 229 639 203 589 177 539 165 464 165 364 165 264 177 189 203 139 229 89 267 64 318 64 369 64 407 89 433 139 458 189 471 264 471 364 471 464 458 539 433 589 407 639 369 664 318 664ZM318 742C399 742 461 709 505 645 548 580 570 486 570 364 570 241 548 147 505 83 461 19 399-13 317-13 235-13 173 19 130 83 87 147 66 241 66 364 66 486 87 580 130 645 173 709 236 742 318 742Z"/>
<text fill-opacity="0" xml:space="preserve" transform="matrix(1 0 -0 1 25.062582 78.7225)" font-size="10" font-family="DejaVuSans"><tspan y="-.0640625" x="6.3623049">0</tspan></text>
<path transform="matrix(.007,0,0,-.007,37.882898,74.830318)" d="M124 83H285V639L110 604V694L284 729H383V83H544V0H124V83Z"/>
<text fill-opacity="0" xml:space="preserve" transform="matrix(1 0 -0 1 25.062582 78.7225)" font-size="7" font-family="DejaVuSans"><tspan y="-3.8921877" x="12.8203129">1</tspan></text>
<g clip-path="url(#clip_17)">
<path transform="matrix(1,0,0,-1,0,252)" stroke-width=".8" stroke-linecap="square" stroke-linejoin="round" fill="none" stroke="#b0b0b0" d="M50.06258 193.69123H237.21"/>
</g>
<path transform="matrix(1,0,0,-1,0,252)" d="M50.06258 193.69123H46.56258"/>
<path transform="matrix(1,0,0,-1,0,252)" stroke-width=".8" stroke-linecap="butt" stroke-linejoin="round" fill="none" stroke="#000000" d="M50.06258 193.69123H46.56258"/>
<path transform="matrix(.010000001,0,0,-.010000001,25.062582,61.79315)" d="M124 83H285V639L110 604V694L284 729H383V83H544V0H124V83Z"/>
<text fill-opacity="0" xml:space="preserve" transform="matrix(1 0 -0 1 25.062582 62.769716)" font-size="10" font-family="DejaVuSans"><tspan y="-.9765625" x="0">1</tspan></text>
<path transform="matrix(.010000001,0,0,-.010000001,31.424887,61.79315)" d="M318 664C267 664 229 639 203 589 177 539 165 464 165 364 165 264 177 189 203 139 229 89 267 64 318 64 369 64 407 89 433 139 458 189 471 264 471 364 471 464 458 539 433 589 407 639 369 664 318 664ZM318 742C399 742 461 709 505 645 548 580 570 486 570 364 570 241 548 147 505 83 461 19 399-13 317-13 235-13 173 19 130 83 87 147 66 241 66 364 66 486 87 580 130 645 173 709 236 742 318 742Z"/>
<text fill-opacity="0" xml:space="preserve" transform="matrix(1 0 -0 1 25.062582 62.769716)" font-size="10" font-family="DejaVuSans"><tspan y="-.9765625" x="6.3623049">0</tspan></text>
<path transform="matrix(.007,0,0,-.007,37.882898,57.965028)" d="M192 83H536V0H73V83C110 121 161 173 226 239 290 304 331 346 348 365 380 400 402 430 414 455 426 479 433 504 433 528 433 566 419 598 392 622 365 646 330 659 286 659 255 659 222 653 188 643 154 632 117 616 78 594V694C118 710 155 722 189 730 223 738 255 742 284 742 359 742 419 723 464 685 509 647 532 597 532 534 532 504 526 475 515 449 504 422 484 390 454 354 446 344 420 317 376 272 332 227 271 164 192 83Z"/>
<text fill-opacity="0" xml:space="preserve" transform="matrix(1 0 -0 1 25.062582 62.769716)" font-size="7" font-family="DejaVuSans"><tspan y="-4.8046877" x="12.8203129">2</tspan></text>
<g clip-path="url(#clip_18)">
<path transform="matrix(1,0,0,-1,0,252)" stroke-width=".8" stroke-linecap="square" stroke-linejoin="round" fill="none" stroke="#b0b0b0" d="M50.06258 210.144H237.21"/>
</g>
<path transform="matrix(1,0,0,-1,0,252)" d="M50.06258 210.144H46.56258"/>
<path transform="matrix(1,0,0,-1,0,252)" stroke-width=".8" stroke-linecap="butt" stroke-linejoin="round" fill="none" stroke="#000000" d="M50.06258 210.144H46.56258"/>
<path transform="matrix(.010000001,0,0,-.010000001,25.062582,45.340379)" d="M124 83H285V639L110 604V694L284 729H383V83H544V0H124V83Z"/>
<text fill-opacity="0" xml:space="preserve" transform="matrix(1 0 -0 1 25.062582 46.31694)" font-size="10" font-family="DejaVuSans"><tspan y="-.9765625" x="0">1</tspan></text>
<path transform="matrix(.010000001,0,0,-.010000001,31.424887,45.340379)" d="M318 664C267 664 229 639 203 589 177 539 165 464 165 364 165 264 177 189 203 139 229 89 267 64 318 64 369 64 407 89 433 139 458 189 471 264 471 364 471 464 458 539 433 589 407 639 369 664 318 664ZM318 742C399 742 461 709 505 645 548 580 570 486 570 364 570 241 548 147 505 83 461 19 399-13 317-13 235-13 173 19 130 83 87 147 66 241 66 364 66 486 87 580 130 645 173 709 236 742 318 742Z"/>
<text fill-opacity="0" xml:space="preserve" transform="matrix(1 0 -0 1 25.062582 46.31694)" font-size="10" font-family="DejaVuSans"><tspan y="-.9765625" x="6.3623049">0</tspan></text>
<path transform="matrix(.007,0,0,-.007,37.882898,41.512254)" d="M406 393C453 383 490 362 516 330 542 298 556 258 556 212 556 140 531 84 482 45 432 6 362-13 271-13 240-13 208-10 176-4 144 1 110 10 76 22V117C103 101 133 89 166 81 198 73 232 69 268 69 330 69 377 81 409 105 441 129 458 165 458 212 458 254 443 288 413 312 383 336 341 349 287 349H202V430H291C339 430 376 439 402 459 428 478 441 506 441 543 441 580 427 609 401 629 374 649 336 659 287 659 260 659 231 656 200 650 169 644 135 635 98 623V711C135 721 170 729 203 734 235 739 266 742 296 742 370 742 429 725 473 691 517 657 539 611 539 553 539 513 527 479 504 451 481 423 448 403 406 393Z"/>
<text fill-opacity="0" xml:space="preserve" transform="matrix(1 0 -0 1 25.062582 46.31694)" font-size="7" font-family="DejaVuSans"><tspan y="-4.8046877" x="12.8203129">3</tspan></text>
<g clip-path="url(#clip_19)">
<path transform="matrix(1,0,0,-1,0,252)" d="M56.30083 109.59922H81.253818V149.46308H56.30083Z" fill="#3274a1"/>
</g>
<g clip-path="url(#clip_20)">
<path transform="matrix(1,0,0,-1,0,252)" d="M118.683307 109.59922H143.63629V76.58577H118.683307Z" fill="#3274a1"/>
</g>
<g clip-path="url(#clip_21)">
<path transform="matrix(1,0,0,-1,0,252)" d="M181.06578 109.59922H206.01877V73.021999H181.06578Z" fill="#3274a1"/>
</g>
<g clip-path="url(#clip_22)">
<path transform="matrix(1,0,0,-1,0,252)" d="M81.253818 109.59922H106.20681V172.14797H81.253818Z" fill="#e1812c"/>
</g>
<g clip-path="url(#clip_23)">
<path transform="matrix(1,0,0,-1,0,252)" d="M143.63629 109.59922H168.58928V184.77059H143.63629Z" fill="#e1812c"/>
</g>
<g clip-path="url(#clip_24)">
<path transform="matrix(1,0,0,-1,0,252)" d="M206.01877 109.59922H230.97176V176.76042H206.01877Z" fill="#e1812c"/>
</g>
<g clip-path="url(#clip_25)">
<path transform="matrix(1,0,0,-1,0,252)" d="M81.253818 109.59922V109.59922Z" fill="#3274a1"/>
</g>
<g clip-path="url(#clip_26)">
<path transform="matrix(1,0,0,-1,0,252)" d="M81.253818 109.59922V109.59922Z" fill="#e1812c"/>
</g>
<g clip-path="url(#clip_27)">
<path transform="matrix(1,0,0,-1,0,252)" stroke-width="2.25" stroke-linecap="square" stroke-linejoin="round" fill="none" stroke="#424242" d=""/>
</g>
<g clip-path="url(#clip_28)">
<path transform="matrix(1,0,0,-1,0,252)" stroke-width="2.25" stroke-linecap="square" stroke-linejoin="round" fill="none" stroke="#424242" d=""/>
</g>
<g clip-path="url(#clip_29)">
<path transform="matrix(1,0,0,-1,0,252)" stroke-width="2.25" stroke-linecap="square" stroke-linejoin="round" fill="none" stroke="#424242" d=""/>
</g>
<g clip-path="url(#clip_30)">
<path transform="matrix(1,0,0,-1,0,252)" stroke-width="2.25" stroke-linecap="square" stroke-linejoin="round" fill="none" stroke="#424242" d=""/>
</g>
<g clip-path="url(#clip_31)">
<path transform="matrix(1,0,0,-1,0,252)" stroke-width="2.25" stroke-linecap="square" stroke-linejoin="round" fill="none" stroke="#424242" d=""/>
</g>
<g clip-path="url(#clip_32)">
<path transform="matrix(1,0,0,-1,0,252)" stroke-width="2.25" stroke-linecap="square" stroke-linejoin="round" fill="none" stroke="#424242" d=""/>
</g>
<g clip-path="url(#clip_33)">
<path transform="matrix(1,0,0,-1,0,252)" stroke-width="1" stroke-linecap="square" stroke-linejoin="round" fill="none" stroke="#000000" d="M50.06258 109.59922H237.21"/>
</g>
<path transform="matrix(1,0,0,-1,0,252)" stroke-width=".8" stroke-linecap="square" stroke-miterlimit="10" stroke-linejoin="miter" fill="none" stroke="#000000" d="M50.06258 41.96V210.144"/>
<path transform="matrix(1,0,0,-1,0,252)" stroke-width=".8" stroke-linecap="square" stroke-miterlimit="10" stroke-linejoin="miter" fill="none" stroke="#000000" d="M237.21 41.96V210.144"/>
<path transform="matrix(1,0,0,-1,0,252)" stroke-width=".8" stroke-linecap="square" stroke-miterlimit="10" stroke-linejoin="miter" fill="none" stroke="#000000" d="M50.06258 41.96H237.21"/>
<path transform="matrix(1,0,0,-1,0,252)" stroke-width=".8" stroke-linecap="square" stroke-miterlimit="10" stroke-linejoin="miter" fill="none" stroke="#000000" d="M50.06258 210.144H237.21"/>
<path transform="matrix(.012,0,0,-.012,60.901918,22.406006)" d="M197 648V374H321C367 374 402 385 427 409 452 433 465 467 465 511 465 555 452 588 427 612 402 636 367 648 321 648H197ZM98 729H321C402 729 464 710 506 673 548 636 569 582 569 511 569 439 548 384 506 348 464 311 402 293 321 293H197V0H98V729Z"/>
<text fill-opacity="0" xml:space="preserve" transform="matrix(1 0 -0 1 60.901918 22.406006)" font-size="12" font-family="DejaVuSans"><tspan y="0" x="0">P</tspan></text>
<path transform="matrix(.012,0,0,-.012,67.93479,22.406006)" d="M411 463C401 469 390 473 378 476 366 478 353 480 339 480 288 480 249 463 222 430 194 397 181 350 181 288V0H91V547H181V462C199 495 224 520 254 536 284 552 321 560 365 560 371 560 378 559 386 559 393 558 401 557 411 555V463Z"/>
<text fill-opacity="0" xml:space="preserve" transform="matrix(1 0 -0 1 60.901918 22.406006)" font-size="12" font-family="DejaVuSans"><tspan y="0" x="7.0328757">r</tspan></text>
<path transform="matrix(.012,0,0,-.012,72.61679,22.406006)" d="M306 484C258 484 220 465 192 427 164 389 150 338 150 273 150 207 163 156 191 118 219 80 257 62 306 62 354 62 392 80 420 118 448 156 462 207 462 273 462 337 448 389 420 427 392 465 354 484 306 484ZM306 560C384 560 445 534 490 484 534 433 557 363 557 273 557 183 534 113 490 63 445 12 384-13 306-13 227-13 165 12 121 63 77 113 55 183 55 273 55 363 77 433 121 484 165 534 227 560 306 560Z"/>
<text fill-opacity="0" xml:space="preserve" transform="matrix(1 0 -0 1 60.901918 22.406006)" font-size="12" font-family="DejaVuSans"><tspan y="0" x="11.714876">o</tspan></text>
<path transform="matrix(.012,0,0,-.012,79.96079,22.406006)" d="M487 273C487 339 473 390 446 428 418 466 381 485 334 485 286 485 249 466 222 428 194 390 181 339 181 273 181 207 194 155 222 117 249 79 286 61 334 61 381 61 418 79 446 117 473 155 487 207 487 273ZM181 464C199 496 223 520 252 536 281 552 316 560 356 560 422 560 476 533 518 481 559 428 580 359 580 273 580 187 559 117 518 65 476 13 422-13 356-13 316-13 281-5 252 10 223 25 199 49 181 82V0H91V760H181V464Z"/>
<text fill-opacity="0" xml:space="preserve" transform="matrix(1 0 -0 1 60.901918 22.406006)" font-size="12" font-family="DejaVuSans"><tspan y="0" x="19.058876">b</tspan></text>
<path transform="matrix(.012,0,0,-.012,87.580799,22.406006)" d="M343 275C270 275 220 266 192 250 164 233 150 205 150 165 150 133 160 107 181 89 202 70 231 61 267 61 317 61 357 78 387 114 417 149 432 196 432 255V275H343ZM522 312V0H432V83C411 49 385 25 355 10 325-5 287-13 243-13 187-13 142 2 109 33 76 64 60 106 60 159 60 220 80 266 122 298 163 329 224 345 306 345H432V354C432 395 418 427 391 450 364 472 326 484 277 484 245 484 215 480 185 472 155 464 127 453 100 439V522C132 534 164 544 195 550 226 556 256 560 286 560 365 560 424 539 463 498 502 457 522 395 522 312Z"/>
<text fill-opacity="0" xml:space="preserve" transform="matrix(1 0 -0 1 60.901918 22.406006)" font-size="12" font-family="DejaVuSans"><tspan y="0" x="26.678877">a</tspan></text>
<path transform="matrix(.012,0,0,-.012,94.9368,22.406006)" d="M487 273C487 339 473 390 446 428 418 466 381 485 334 485 286 485 249 466 222 428 194 390 181 339 181 273 181 207 194 155 222 117 249 79 286 61 334 61 381 61 418 79 446 117 473 155 487 207 487 273ZM181 464C199 496 223 520 252 536 281 552 316 560 356 560 422 560 476 533 518 481 559 428 580 359 580 273 580 187 559 117 518 65 476 13 422-13 356-13 316-13 281-5 252 10 223 25 199 49 181 82V0H91V760H181V464Z"/>
<text fill-opacity="0" xml:space="preserve" transform="matrix(1 0 -0 1 60.901918 22.406006)" font-size="12" font-family="DejaVuSans"><tspan y="0" x="34.034879">b</tspan></text>
<path transform="matrix(.012,0,0,-.012,102.55679,22.406006)" d="M94 547H184V0H94V547ZM94 760H184V646H94V760Z"/>
<text fill-opacity="0" xml:space="preserve" transform="matrix(1 0 -0 1 60.901918 22.406006)" font-size="12" font-family="DejaVuSans"><tspan y="0" x="41.654878">i</tspan></text>
<path transform="matrix(.012,0,0,-.012,105.89279,22.406006)" d="M94 760H184V0H94V760Z"/>
<text fill-opacity="0" xml:space="preserve" transform="matrix(1 0 -0 1 60.901918 22.406006)" font-size="12" font-family="DejaVuSans"><tspan y="0" x="44.990877">l</tspan></text>
<path transform="matrix(.012,0,0,-.012,109.22879,22.406006)" d="M94 547H184V0H94V547ZM94 760H184V646H94V760Z"/>
<text fill-opacity="0" xml:space="preserve" transform="matrix(1 0 -0 1 60.901918 22.406006)" font-size="12" font-family="DejaVuSans"><tspan y="0" x="48.326875">i</tspan></text>
<path transform="matrix(.012,0,0,-.012,112.56479,22.406006)" d="M183 702V547H368V477H183V180C183 135 189 106 201 94 213 81 238 75 276 75H368V0H276C206 0 158 13 132 39 106 65 93 112 93 180V477H27V547H93V702H183Z"/>
<text fill-opacity="0" xml:space="preserve" transform="matrix(1 0 -0 1 60.901918 22.406006)" font-size="12" font-family="DejaVuSans"><tspan y="0" x="51.662874">t</tspan></text>
<path transform="matrix(.012,0,0,-.012,117.26879,22.406006)" d="M322-50C296-114 271-157 247-177 223-197 191-207 151-207H79V-132H132C156-132 175-126 189-114 203-102 218-75 235-31L251 9 30 547H125L296 119 467 547H562L322-50Z"/>
<text fill-opacity="0" xml:space="preserve" transform="matrix(1 0 -0 1 60.901918 22.406006)" font-size="12" font-family="DejaVuSans"><tspan y="0" x="56.366876">y</tspan></text>
<path transform="matrix(.012,0,0,-.012,124.37279,22.406006)" d=""/>
<text fill-opacity="0" xml:space="preserve" transform="matrix(1 0 -0 1 60.901918 22.406006)" font-size="12" font-family="DejaVuSans"><tspan y="0" x="63.470876"> </tspan></text>
<path transform="matrix(.012,0,0,-.012,128.18878,22.406006)" d="M444 342C465 334 486 319 506 296 526 272 546 240 566 199L666 0H560L467 187C443 235 419 268 397 284 374 300 343 308 304 308H197V0H98V729H321C404 729 466 711 507 677 548 642 569 589 569 519 569 473 558 434 537 404 515 374 484 353 444 342ZM197 648V389H321C368 389 404 400 428 422 452 444 465 476 465 519 465 561 452 593 428 615 404 637 368 648 321 648H197Z"/>
<text fill-opacity="0" xml:space="preserve" transform="matrix(1 0 -0 1 60.901918 22.406006)" font-size="12" font-family="DejaVuSans"><tspan y="0" x="67.28687">R</tspan></text>
<path transform="matrix(.012,0,0,-.012,135.99755,22.406006)" d="M562 296V252H149C153 190 171 142 205 110 238 78 284 62 344 62 378 62 412 66 444 74 476 82 509 95 541 113V28C509 14 476 3 442-3 408-9 373-13 339-13 251-13 182 12 131 62 80 112 55 181 55 268 55 357 79 428 127 481 175 533 241 560 323 560 397 560 455 536 498 489 540 441 562 377 562 296ZM472 322C471 371 457 410 431 440 404 469 368 484 324 484 274 484 234 469 204 441 174 413 156 373 152 322H472Z"/>
<text fill-opacity="0" xml:space="preserve" transform="matrix(1 0 -0 1 60.901918 22.406006)" font-size="12" font-family="DejaVuSans"><tspan y="0" x="75.09563">e</tspan></text>
<path transform="matrix(.012,0,0,-.012,143.37754,22.406006)" d="M94 760H184V0H94V760Z"/>
<text fill-opacity="0" xml:space="preserve" transform="matrix(1 0 -0 1 60.901918 22.406006)" font-size="12" font-family="DejaVuSans"><tspan y="0" x="82.475627">l</tspan></text>
<path transform="matrix(.012,0,0,-.012,146.71353,22.406006)" d="M343 275C270 275 220 266 192 250 164 233 150 205 150 165 150 133 160 107 181 89 202 70 231 61 267 61 317 61 357 78 387 114 417 149 432 196 432 255V275H343ZM522 312V0H432V83C411 49 385 25 355 10 325-5 287-13 243-13 187-13 142 2 109 33 76 64 60 106 60 159 60 220 80 266 122 298 163 329 224 345 306 345H432V354C432 395 418 427 391 450 364 472 326 484 277 484 245 484 215 480 185 472 155 464 127 453 100 439V522C132 534 164 544 195 550 226 556 256 560 286 560 365 560 424 539 463 498 502 457 522 395 522 312Z"/>
<text fill-opacity="0" xml:space="preserve" transform="matrix(1 0 -0 1 60.901918 22.406006)" font-size="12" font-family="DejaVuSans"><tspan y="0" x="85.81162">a</tspan></text>
<path transform="matrix(.012,0,0,-.012,154.06955,22.406006)" d="M183 702V547H368V477H183V180C183 135 189 106 201 94 213 81 238 75 276 75H368V0H276C206 0 158 13 132 39 106 65 93 112 93 180V477H27V547H93V702H183Z"/>
<text fill-opacity="0" xml:space="preserve" transform="matrix(1 0 -0 1 60.901918 22.406006)" font-size="12" font-family="DejaVuSans"><tspan y="0" x="93.167629">t</tspan></text>
<path transform="matrix(.012,0,0,-.012,158.77355,22.406006)" d="M94 547H184V0H94V547ZM94 760H184V646H94V760Z"/>
<text fill-opacity="0" xml:space="preserve" transform="matrix(1 0 -0 1 60.901918 22.406006)" font-size="12" font-family="DejaVuSans"><tspan y="0" x="97.87163">i</tspan></text>
<path transform="matrix(.012,0,0,-.012,162.10955,22.406006)" d="M30 547H125L296 88 467 547H562L357 0H235L30 547Z"/>
<text fill-opacity="0" xml:space="preserve" transform="matrix(1 0 -0 1 60.901918 22.406006)" font-size="12" font-family="DejaVuSans"><tspan y="0" x="101.20763">v</tspan></text>
<path transform="matrix(.012,0,0,-.012,169.21355,22.406006)" d="M562 296V252H149C153 190 171 142 205 110 238 78 284 62 344 62 378 62 412 66 444 74 476 82 509 95 541 113V28C509 14 476 3 442-3 408-9 373-13 339-13 251-13 182 12 131 62 80 112 55 181 55 268 55 357 79 428 127 481 175 533 241 560 323 560 397 560 455 536 498 489 540 441 562 377 562 296ZM472 322C471 371 457 410 431 440 404 469 368 484 324 484 274 484 234 469 204 441 174 413 156 373 152 322H472Z"/>
<text fill-opacity="0" xml:space="preserve" transform="matrix(1 0 -0 1 60.901918 22.406006)" font-size="12" font-family="DejaVuSans"><tspan y="0" x="108.31163">e</tspan></text>
<path transform="matrix(.012,0,0,-.012,176.59354,22.406006)" d=""/>
<text fill-opacity="0" xml:space="preserve" transform="matrix(1 0 -0 1 60.901918 22.406006)" font-size="12" font-family="DejaVuSans"><tspan y="0" x="115.69163"> </tspan></text>
<path transform="matrix(.012,0,0,-.012,180.40955,22.406006)" d="M644 673V569C610 599 575 622 537 638 499 653 460 661 418 661 334 661 270 635 226 584 182 533 160 460 160 364 160 268 182 194 226 143 270 92 334 67 418 67 460 67 499 74 537 90 575 105 610 128 644 159V56C609 32 572 15 534 4 496-7 455-13 412-13 302-13 215 20 151 87 87 154 56 246 56 364 56 481 87 573 151 641 215 708 302 742 412 742 456 742 497 736 535 725 573 713 610 696 644 673Z"/>
<text fill-opacity="0" xml:space="preserve" transform="matrix(1 0 -0 1 60.901918 22.406006)" font-size="12" font-family="DejaVuSans"><tspan y="0" x="119.50763">C</tspan></text>
<path transform="matrix(.012,0,0,-.012,188.78556,22.406006)" d="M549 330V0H459V327C459 379 448 417 428 443 408 469 378 482 338 482 289 482 251 466 223 435 195 404 181 362 181 309V0H91V760H181V462C202 494 227 519 257 535 286 551 320 560 358 560 420 560 468 540 500 501 532 462 549 405 549 330Z"/>
<text fill-opacity="0" xml:space="preserve" transform="matrix(1 0 -0 1 60.901918 22.406006)" font-size="12" font-family="DejaVuSans"><tspan y="0" x="127.88363">h</tspan></text>
<path transform="matrix(.012,0,0,-.012,196.39354,22.406006)" d="M343 275C270 275 220 266 192 250 164 233 150 205 150 165 150 133 160 107 181 89 202 70 231 61 267 61 317 61 357 78 387 114 417 149 432 196 432 255V275H343ZM522 312V0H432V83C411 49 385 25 355 10 325-5 287-13 243-13 187-13 142 2 109 33 76 64 60 106 60 159 60 220 80 266 122 298 163 329 224 345 306 345H432V354C432 395 418 427 391 450 364 472 326 484 277 484 245 484 215 480 185 472 155 464 127 453 100 439V522C132 534 164 544 195 550 226 556 256 560 286 560 365 560 424 539 463 498 502 457 522 395 522 312Z"/>
<text fill-opacity="0" xml:space="preserve" transform="matrix(1 0 -0 1 60.901918 22.406006)" font-size="12" font-family="DejaVuSans"><tspan y="0" x="135.49163">a</tspan></text>
<path transform="matrix(.012,0,0,-.012,203.74954,22.406006)" d="M549 330V0H459V327C459 379 448 417 428 443 408 469 378 482 338 482 289 482 251 466 223 435 195 404 181 362 181 309V0H91V547H181V462C202 494 227 519 257 535 286 551 320 560 358 560 420 560 468 540 500 501 532 462 549 405 549 330Z"/>
<text fill-opacity="0" xml:space="preserve" transform="matrix(1 0 -0 1 60.901918 22.406006)" font-size="12" font-family="DejaVuSans"><tspan y="0" x="142.84763">n</tspan></text>
<path transform="matrix(.012,0,0,-.012,211.35755,22.406006)" d="M454 280C454 344 440 395 414 431 387 467 349 485 301 485 253 485 215 467 188 431 161 395 148 344 148 280 148 215 161 165 188 129 215 93 253 75 301 75 349 75 387 93 414 129 440 165 454 215 454 280ZM544 68C544-24 523-93 482-139 440-184 377-207 292-207 260-207 231-204 203-200 175-195 147-188 121-178V-91C147-105 173-115 199-122 225-129 251-133 278-133 336-133 380-117 410-87 439-56 454-10 454 52V96C435 64 411 40 382 24 353 8 319 0 279 0 211 0 157 25 116 76 75 127 55 195 55 280 55 364 75 432 116 483 157 534 211 560 279 560 319 560 353 552 382 536 411 520 435 496 454 464V547H544V68Z"/>
<text fill-opacity="0" xml:space="preserve" transform="matrix(1 0 -0 1 60.901918 22.406006)" font-size="12" font-family="DejaVuSans"><tspan y="0" x="150.45563">g</tspan></text>
<path transform="matrix(.012,0,0,-.012,218.97754,22.406006)" d="M562 296V252H149C153 190 171 142 205 110 238 78 284 62 344 62 378 62 412 66 444 74 476 82 509 95 541 113V28C509 14 476 3 442-3 408-9 373-13 339-13 251-13 182 12 131 62 80 112 55 181 55 268 55 357 79 428 127 481 175 533 241 560 323 560 397 560 455 536 498 489 540 441 562 377 562 296ZM472 322C471 371 457 410 431 440 404 469 368 484 324 484 274 484 234 469 204 441 174 413 156 373 152 322H472Z"/>
<text fill-opacity="0" xml:space="preserve" transform="matrix(1 0 -0 1 60.901918 22.406006)" font-size="12" font-family="DejaVuSans"><tspan y="0" x="158.07563">e</tspan></text>
<path transform="matrix(.012,0,0,-.012,72.581607,35.856004)" d="M310 759C266 683 234 609 213 536 191 463 181 389 181 314 181 238 191 164 213 91 234 17 266-56 310-131H232C183-54 146 20 122 94 98 168 86 241 86 314 86 386 98 459 122 533 146 607 182 682 232 759H310Z"/>
<text fill-opacity="0" xml:space="preserve" transform="matrix(1 0 -0 1 72.581607 35.856004)" font-size="12" font-family="DejaVuSans"><tspan y="0" x="0">(</tspan></text>
<path transform="matrix(.012,0,0,-.012,77.261608,35.856004)" d="M310 759C266 683 234 609 213 536 191 463 181 389 181 314 181 238 191 164 213 91 234 17 266-56 310-131H232C183-54 146 20 122 94 98 168 86 241 86 314 86 386 98 459 122 533 146 607 182 682 232 759H310Z"/>
<text fill-opacity="0" xml:space="preserve" transform="matrix(1 0 -0 1 72.581607 35.856004)" font-size="12" font-family="DejaVuSans"><tspan y="0" x="4.6800005">(</tspan></text>
<path transform="matrix(.012,0,0,-.012,81.941608,35.856004)" d="M342 632 208 269H476L342 632ZM286 729H398L676 0H573L507 187H178L112 0H8L286 729Z"/>
<text fill-opacity="0" xml:space="preserve" transform="matrix(1 0 -0 1 72.581607 35.856004)" font-size="12" font-family="DejaVuSans"><tspan y="0" x="9.360001">A</tspan></text>
<path transform="matrix(.012,0,0,-.012,89.72773,35.856004)" d="M371 760V685H285C253 685 230 678 218 665 205 652 199 629 199 595V547H347V477H199V0H109V477H23V547H109V585C109 645 123 690 151 718 179 746 224 760 286 760H371Z"/>
<text fill-opacity="0" xml:space="preserve" transform="matrix(1 0 -0 1 72.581607 35.856004)" font-size="12" font-family="DejaVuSans"><tspan y="0" x="17.146126">f</tspan></text>
<path transform="matrix(.012,0,0,-.012,93.748607,35.856004)" d="M183 702V547H368V477H183V180C183 135 189 106 201 94 213 81 238 75 276 75H368V0H276C206 0 158 13 132 39 106 65 93 112 93 180V477H27V547H93V702H183Z"/>
<text fill-opacity="0" xml:space="preserve" transform="matrix(1 0 -0 1 72.581607 35.856004)" font-size="12" font-family="DejaVuSans"><tspan y="0" x="21.167002">t</tspan></text>
<path transform="matrix(.012,0,0,-.012,98.45261,35.856004)" d="M562 296V252H149C153 190 171 142 205 110 238 78 284 62 344 62 378 62 412 66 444 74 476 82 509 95 541 113V28C509 14 476 3 442-3 408-9 373-13 339-13 251-13 182 12 131 62 80 112 55 181 55 268 55 357 79 428 127 481 175 533 241 560 323 560 397 560 455 536 498 489 540 441 562 377 562 296ZM472 322C471 371 457 410 431 440 404 469 368 484 324 484 274 484 234 469 204 441 174 413 156 373 152 322H472Z"/>
<text fill-opacity="0" xml:space="preserve" transform="matrix(1 0 -0 1 72.581607 35.856004)" font-size="12" font-family="DejaVuSans"><tspan y="0" x="25.871003">e</tspan></text>
<path transform="matrix(.012,0,0,-.012,105.83261,35.856004)" d="M411 463C401 469 390 473 378 476 366 478 353 480 339 480 288 480 249 463 222 430 194 397 181 350 181 288V0H91V547H181V462C199 495 224 520 254 536 284 552 321 560 365 560 371 560 378 559 386 559 393 558 401 557 411 555V463Z"/>
<text fill-opacity="0" xml:space="preserve" transform="matrix(1 0 -0 1 72.581607 35.856004)" font-size="12" font-family="DejaVuSans"><tspan y="0" x="33.251005">r</tspan></text>
<path transform="matrix(.012,0,0,-.012,110.7646,35.856004)" d=""/>
<text fill-opacity="0" xml:space="preserve" transform="matrix(1 0 -0 1 72.581607 35.856004)" font-size="12" font-family="DejaVuSans"><tspan y="0" x="38.183004"> </tspan></text>
<path transform="matrix(.012,0,0,-.012,114.58061,35.856004)" d="M49 314H312V234H49V314Z"/>
<text fill-opacity="0" xml:space="preserve" transform="matrix(1 0 -0 1 72.581607 35.856004)" font-size="12" font-family="DejaVuSans"><tspan y="0" x="41.999006">-</tspan></text>
<path transform="matrix(.012,0,0,-.012,118.91261,35.856004)" d=""/>
<text fill-opacity="0" xml:space="preserve" transform="matrix(1 0 -0 1 72.581607 35.856004)" font-size="12" font-family="DejaVuSans"><tspan y="0" x="46.331007"> </tspan></text>
<path transform="matrix(.012,0,0,-.012,122.72861,35.856004)" d="M197 348V81H355C408 81 447 92 473 114 498 136 511 169 511 215 511 260 498 293 473 315 447 337 408 348 355 348H197ZM197 648V428H343C391 428 426 437 450 455 474 473 486 500 486 538 486 574 474 602 450 620 426 638 391 648 343 648H197ZM98 729H350C425 729 483 713 524 682 564 650 585 606 585 549 585 504 574 468 553 442 532 416 502 399 462 393 510 382 548 360 575 327 601 294 615 253 615 204 615 138 592 88 548 53 504 17 441 0 360 0H98V729Z"/>
<text fill-opacity="0" xml:space="preserve" transform="matrix(1 0 -0 1 72.581607 35.856004)" font-size="12" font-family="DejaVuSans"><tspan y="0" x="50.147008">B</tspan></text>
<path transform="matrix(.012,0,0,-.012,130.9606,35.856004)" d="M562 296V252H149C153 190 171 142 205 110 238 78 284 62 344 62 378 62 412 66 444 74 476 82 509 95 541 113V28C509 14 476 3 442-3 408-9 373-13 339-13 251-13 182 12 131 62 80 112 55 181 55 268 55 357 79 428 127 481 175 533 241 560 323 560 397 560 455 536 498 489 540 441 562 377 562 296ZM472 322C471 371 457 410 431 440 404 469 368 484 324 484 274 484 234 469 204 441 174 413 156 373 152 322H472Z"/>
<text fill-opacity="0" xml:space="preserve" transform="matrix(1 0 -0 1 72.581607 35.856004)" font-size="12" font-family="DejaVuSans"><tspan y="0" x="58.379007">e</tspan></text>
<path transform="matrix(.012,0,0,-.012,138.3406,35.856004)" d="M371 760V685H285C253 685 230 678 218 665 205 652 199 629 199 595V547H347V477H199V0H109V477H23V547H109V585C109 645 123 690 151 718 179 746 224 760 286 760H371Z"/>
<text fill-opacity="0" xml:space="preserve" transform="matrix(1 0 -0 1 72.581607 35.856004)" font-size="12" font-family="DejaVuSans"><tspan y="0" x="65.759">f</tspan></text>
<path transform="matrix(.012,0,0,-.012,142.5646,35.856004)" d="M306 484C258 484 220 465 192 427 164 389 150 338 150 273 150 207 163 156 191 118 219 80 257 62 306 62 354 62 392 80 420 118 448 156 462 207 462 273 462 337 448 389 420 427 392 465 354 484 306 484ZM306 560C384 560 445 534 490 484 534 433 557 363 557 273 557 183 534 113 490 63 445 12 384-13 306-13 227-13 165 12 121 63 77 113 55 183 55 273 55 363 77 433 121 484 165 534 227 560 306 560Z"/>
<text fill-opacity="0" xml:space="preserve" transform="matrix(1 0 -0 1 72.581607 35.856004)" font-size="12" font-family="DejaVuSans"><tspan y="0" x="69.983">o</tspan></text>
<path transform="matrix(.012,0,0,-.012,149.9086,35.856004)" d="M411 463C401 469 390 473 378 476 366 478 353 480 339 480 288 480 249 463 222 430 194 397 181 350 181 288V0H91V547H181V462C199 495 224 520 254 536 284 552 321 560 365 560 371 560 378 559 386 559 393 558 401 557 411 555V463Z"/>
<text fill-opacity="0" xml:space="preserve" transform="matrix(1 0 -0 1 72.581607 35.856004)" font-size="12" font-family="DejaVuSans"><tspan y="0" x="77.327">r</tspan></text>
<path transform="matrix(.012,0,0,-.012,154.5906,35.856004)" d="M562 296V252H149C153 190 171 142 205 110 238 78 284 62 344 62 378 62 412 66 444 74 476 82 509 95 541 113V28C509 14 476 3 442-3 408-9 373-13 339-13 251-13 182 12 131 62 80 112 55 181 55 268 55 357 79 428 127 481 175 533 241 560 323 560 397 560 455 536 498 489 540 441 562 377 562 296ZM472 322C471 371 457 410 431 440 404 469 368 484 324 484 274 484 234 469 204 441 174 413 156 373 152 322H472Z"/>
<text fill-opacity="0" xml:space="preserve" transform="matrix(1 0 -0 1 72.581607 35.856004)" font-size="12" font-family="DejaVuSans"><tspan y="0" x="82.009">e</tspan></text>
<path transform="matrix(.012,0,0,-.012,161.97061,35.856004)" d="M80 759H158C206 682 243 607 267 533 291 459 304 386 304 314 304 241 291 168 267 94 243 20 206-54 158-131H80C123-56 155 17 177 91 198 164 209 238 209 314 209 389 198 463 177 536 155 609 123 683 80 759Z"/>
<text fill-opacity="0" xml:space="preserve" transform="matrix(1 0 -0 1 72.581607 35.856004)" font-size="12" font-family="DejaVuSans"><tspan y="0" x="89.389">)</tspan></text>
<path transform="matrix(.012,0,0,-.012,166.6506,35.856004)" d="M254 729H337L83-92H0L254 729Z"/>
<text fill-opacity="0" xml:space="preserve" transform="matrix(1 0 -0 1 72.581607 35.856004)" font-size="12" font-family="DejaVuSans"><tspan y="0" x="94.069">/</tspan></text>
<path transform="matrix(.012,0,0,-.012,170.69461,35.856004)" d="M197 348V81H355C408 81 447 92 473 114 498 136 511 169 511 215 511 260 498 293 473 315 447 337 408 348 355 348H197ZM197 648V428H343C391 428 426 437 450 455 474 473 486 500 486 538 486 574 474 602 450 620 426 638 391 648 343 648H197ZM98 729H350C425 729 483 713 524 682 564 650 585 606 585 549 585 504 574 468 553 442 532 416 502 399 462 393 510 382 548 360 575 327 601 294 615 253 615 204 615 138 592 88 548 53 504 17 441 0 360 0H98V729Z"/>
<text fill-opacity="0" xml:space="preserve" transform="matrix(1 0 -0 1 72.581607 35.856004)" font-size="12" font-family="DejaVuSans"><tspan y="0" x="98.113">B</tspan></text>
<path transform="matrix(.012,0,0,-.012,178.9266,35.856004)" d="M562 296V252H149C153 190 171 142 205 110 238 78 284 62 344 62 378 62 412 66 444 74 476 82 509 95 541 113V28C509 14 476 3 442-3 408-9 373-13 339-13 251-13 182 12 131 62 80 112 55 181 55 268 55 357 79 428 127 481 175 533 241 560 323 560 397 560 455 536 498 489 540 441 562 377 562 296ZM472 322C471 371 457 410 431 440 404 469 368 484 324 484 274 484 234 469 204 441 174 413 156 373 152 322H472Z"/>
<text fill-opacity="0" xml:space="preserve" transform="matrix(1 0 -0 1 72.581607 35.856004)" font-size="12" font-family="DejaVuSans"><tspan y="0" x="106.345">e</tspan></text>
<path transform="matrix(.012,0,0,-.012,186.30661,35.856004)" d="M371 760V685H285C253 685 230 678 218 665 205 652 199 629 199 595V547H347V477H199V0H109V477H23V547H109V585C109 645 123 690 151 718 179 746 224 760 286 760H371Z"/>
<text fill-opacity="0" xml:space="preserve" transform="matrix(1 0 -0 1 72.581607 35.856004)" font-size="12" font-family="DejaVuSans"><tspan y="0" x="113.725">f</tspan></text>
<path transform="matrix(.012,0,0,-.012,190.53061,35.856004)" d="M306 484C258 484 220 465 192 427 164 389 150 338 150 273 150 207 163 156 191 118 219 80 257 62 306 62 354 62 392 80 420 118 448 156 462 207 462 273 462 337 448 389 420 427 392 465 354 484 306 484ZM306 560C384 560 445 534 490 484 534 433 557 363 557 273 557 183 534 113 490 63 445 12 384-13 306-13 227-13 165 12 121 63 77 113 55 183 55 273 55 363 77 433 121 484 165 534 227 560 306 560Z"/>
<text fill-opacity="0" xml:space="preserve" transform="matrix(1 0 -0 1 72.581607 35.856004)" font-size="12" font-family="DejaVuSans"><tspan y="0" x="117.949">o</tspan></text>
<path transform="matrix(.012,0,0,-.012,197.8746,35.856004)" d="M411 463C401 469 390 473 378 476 366 478 353 480 339 480 288 480 249 463 222 430 194 397 181 350 181 288V0H91V547H181V462C199 495 224 520 254 536 284 552 321 560 365 560 371 560 378 559 386 559 393 558 401 557 411 555V463Z"/>
<text fill-opacity="0" xml:space="preserve" transform="matrix(1 0 -0 1 72.581607 35.856004)" font-size="12" font-family="DejaVuSans"><tspan y="0" x="125.293">r</tspan></text>
<path transform="matrix(.012,0,0,-.012,202.55661,35.856004)" d="M562 296V252H149C153 190 171 142 205 110 238 78 284 62 344 62 378 62 412 66 444 74 476 82 509 95 541 113V28C509 14 476 3 442-3 408-9 373-13 339-13 251-13 182 12 131 62 80 112 55 181 55 268 55 357 79 428 127 481 175 533 241 560 323 560 397 560 455 536 498 489 540 441 562 377 562 296ZM472 322C471 371 457 410 431 440 404 469 368 484 324 484 274 484 234 469 204 441 174 413 156 373 152 322H472Z"/>
<text fill-opacity="0" xml:space="preserve" transform="matrix(1 0 -0 1 72.581607 35.856004)" font-size="12" font-family="DejaVuSans"><tspan y="0" x="129.975">e</tspan></text>
<path transform="matrix(.012,0,0,-.012,209.93662,35.856004)" d="M80 759H158C206 682 243 607 267 533 291 459 304 386 304 314 304 241 291 168 267 94 243 20 206-54 158-131H80C123-56 155 17 177 91 198 164 209 238 209 314 209 389 198 463 177 536 155 609 123 683 80 759Z"/>
<text fill-opacity="0" xml:space="preserve" transform="matrix(1 0 -0 1 72.581607 35.856004)" font-size="12" font-family="DejaVuSans"><tspan y="0" x="137.35501">)</tspan></text>
</svg>
